<svg width="446" height="255" viewBox="0 0 446 255" fill="none" xmlns="http://www.w3.org/2000/svg">
<path d="M322.085 99.5697C337.462 154.218 305.489 211.027 250.667 226.453C195.845 241.879 138.939 210.079 123.562 155.43C108.185 100.782 140.158 43.973 194.98 28.5471C249.802 13.1212 306.708 44.9209 322.085 99.5697Z" stroke="#C1FF3E"/>
<path d="M439.429 66.5511C439.575 67.068 439.46 67.7224 438.95 68.5534C438.441 69.3832 437.572 70.329 436.332 71.3832C433.854 73.4892 429.986 75.9493 424.846 78.7086C414.574 84.2233 399.319 90.8832 380.202 98.2518C341.973 112.987 288.359 130.534 228.422 147.4C168.485 164.265 113.587 177.25 73.2836 184.613C53.1291 188.294 36.6393 190.567 24.999 191.218C19.1747 191.544 14.5913 191.462 11.3786 190.957C9.77051 190.704 8.53639 190.35 7.66923 189.907C6.80084 189.464 6.36155 188.966 6.21611 188.449C6.07067 187.932 6.18555 187.278 6.69542 186.447C7.20457 185.617 8.07291 184.671 9.31329 183.617C11.7913 181.511 15.6594 179.051 20.7989 176.291C31.0707 170.777 46.326 164.117 65.4431 156.748C103.672 142.013 157.286 124.465 217.223 107.6C277.16 90.7352 332.058 77.7495 372.362 70.3872C392.516 66.7055 409.006 64.433 420.646 63.782C426.471 63.4563 431.054 63.5383 434.267 64.0431C435.875 64.2958 437.109 64.65 437.976 65.0926C438.844 65.5357 439.284 66.0342 439.429 66.5511Z" stroke="#C1FF3E"/>
</svg>
