<svg width="74" height="74" viewBox="0 0 74 74" fill="none" xmlns="http://www.w3.org/2000/svg">
<rect x="0.5" y="0.5" width="73" height="73" rx="19.5" stroke="#FF9A00"/>
<path d="M30.7793 44H27.6152L32.5176 29.8594H36.2871L41.1699 44H38.0254L36.9707 40.7383H31.8535L30.7793 44ZM32.5957 38.4531H36.2285L34.4512 33.043H34.3535L32.5957 38.4531ZM42.7715 44V33.3945H45.6621V44H42.7715ZM44.2168 32.0078C43.3379 32.0078 42.6348 31.3438 42.6348 30.543C42.6348 29.7227 43.3379 29.0586 44.2168 29.0586C45.0762 29.0586 45.7793 29.7227 45.7793 30.543C45.7793 31.3438 45.0762 32.0078 44.2168 32.0078Z" fill="#FF9A00"/>
</svg>
