<svg width="74" height="74" viewBox="0 0 74 74" fill="none" xmlns="http://www.w3.org/2000/svg">
<rect x="0.5" y="0.5" width="73" height="73" rx="19.5" stroke="#05CA79"/>
<path d="M9.54883 44V29.8594H18.8652V32.2812H12.4785V35.7188H18.2598V38.1406H12.4785V44H9.54883ZM20.7402 44V33.3945H23.6309V44H20.7402ZM22.1855 32.0078C21.3066 32.0078 20.6035 31.3438 20.6035 30.543C20.6035 29.7227 21.3066 29.0586 22.1855 29.0586C23.0449 29.0586 23.748 29.7227 23.748 30.543C23.748 31.3438 23.0449 32.0078 22.1855 32.0078ZM30.6426 48.1992C27.7129 48.1992 25.916 46.8906 25.7402 44.8789H28.5918C28.748 45.7188 29.5488 46.1094 30.7012 46.1094C32.0488 46.1094 32.9473 45.543 32.9473 44.0586V42.125H32.8105C32.4199 42.9844 31.4824 43.8438 29.7832 43.8438C27.3809 43.8438 25.4668 42.1641 25.4668 38.6289C25.4668 35.0352 27.4395 33.2578 29.7832 33.2578C31.5605 33.2578 32.4199 34.3125 32.8105 35.1719H32.9277V33.3945H35.7988V44.1172C35.7988 46.8125 33.6504 48.1992 30.6426 48.1992ZM30.6816 41.6758C32.127 41.6758 32.9473 40.543 32.9473 38.668C32.9473 36.7734 32.127 35.5625 30.6816 35.5625C29.2168 35.5625 28.4355 36.832 28.4355 38.668C28.4355 40.5039 29.2168 41.6758 30.6816 41.6758ZM38.0449 44V33.3945H40.7988V35.25H40.916C41.3652 34.0195 42.4395 33.2578 43.8652 33.2578C45.3301 33.2578 46.4043 34.0195 46.7559 35.25H46.8535C47.3027 34.0391 48.4941 33.2578 50.0566 33.2578C52.0293 33.2578 53.3965 34.5664 53.3965 36.8711V44H50.5059V37.4375C50.5059 36.2266 49.8027 35.6406 48.8457 35.6406C47.752 35.6406 47.127 36.4023 47.127 37.5156V44H44.3145V37.3594C44.3145 36.3047 43.6504 35.6406 42.6738 35.6406C41.6973 35.6406 40.9355 36.4219 40.9355 37.6328V44H38.0449ZM55.1152 41.0312C55.1152 38.668 57.0293 37.8867 59.0605 37.7695C59.8223 37.7207 61.248 37.6523 61.6973 37.6328V36.7734C61.6777 35.8945 61.0723 35.3672 59.998 35.3672C59.0215 35.3672 58.3965 35.8164 58.2402 36.5391H55.4863C55.6621 34.7031 57.2637 33.2578 60.0762 33.2578C62.3809 33.2578 64.5684 34.293 64.5684 36.8516V44H61.834V42.5352H61.7559C61.2285 43.5117 60.2324 44.1953 58.6504 44.1953C56.6191 44.1953 55.1152 43.1406 55.1152 41.0312ZM57.8887 40.9531C57.8887 41.7734 58.5527 42.2031 59.4707 42.2031C60.7793 42.2031 61.7168 41.3242 61.6973 40.2109V39.4297C61.2578 39.4492 60.0273 39.5176 59.5293 39.5664C58.5332 39.6641 57.8887 40.1328 57.8887 40.9531Z" fill="#05CA79"/>
</svg>
