<svg width="74" height="74" viewBox="0 0 74 74" fill="none" xmlns="http://www.w3.org/2000/svg">
<rect x="0.5" y="0.5" width="73" height="73" rx="19.5" stroke="white"/>
<path d="M12.5039 37.8672V44H9.61328V33.3945H12.3672V35.25H12.4844C12.9727 34.0195 14.1055 33.2578 15.668 33.2578C17.875 33.2578 19.3398 34.7617 19.3203 37.2422V44H16.4492V37.75C16.4492 36.4414 15.7266 35.6602 14.5352 35.6602C13.3242 35.6602 12.5039 36.4609 12.5039 37.8672ZM25.932 44.2148C22.7289 44.2148 20.7367 42.0078 20.7367 38.7266C20.7367 35.4453 22.7289 33.2578 25.932 33.2578C29.1352 33.2578 31.1469 35.4453 31.1469 38.7266C31.1469 42.0078 29.1352 44.2148 25.932 44.2148ZM25.9516 41.9688C27.4359 41.9688 28.1977 40.582 28.1977 38.7266C28.1977 36.8516 27.4359 35.4648 25.9516 35.4648C24.4477 35.4648 23.6664 36.8516 23.6664 38.7266C23.6664 40.582 24.4477 41.9688 25.9516 41.9688ZM38.1492 33.3945V35.5625H36.157V40.7383C36.157 41.5781 36.5672 41.793 37.1531 41.8125C37.4461 41.8125 37.9539 41.793 38.3055 41.7539V44.0391C37.993 44.0977 37.4852 44.1367 36.7625 44.1367C34.6727 44.1367 33.2469 43.1992 33.2664 41.1484V35.5625H31.8016V33.3945H33.2664V30.8555H36.157V33.3945H38.1492ZM39.5656 44V33.3945H42.4562V44H39.5656ZM41.0109 32.0078C40.132 32.0078 39.4289 31.3438 39.4289 30.543C39.4289 29.7227 40.132 29.0586 41.0109 29.0586C41.8703 29.0586 42.5734 29.7227 42.5734 30.543C42.5734 31.3438 41.8703 32.0078 41.0109 32.0078ZM49.068 44.2148C45.8648 44.2148 43.8727 42.0078 43.8727 38.7266C43.8727 35.4453 45.8648 33.2578 49.068 33.2578C52.2711 33.2578 54.2828 35.4453 54.2828 38.7266C54.2828 42.0078 52.2711 44.2148 49.068 44.2148ZM49.0875 41.9688C50.5719 41.9688 51.3336 40.582 51.3336 38.7266C51.3336 36.8516 50.5719 35.4648 49.0875 35.4648C47.5836 35.4648 46.8023 36.8516 46.8023 38.7266C46.8023 40.582 47.5836 41.9688 49.0875 41.9688ZM58.5898 37.8672V44H55.6992V33.3945H58.4531V35.25H58.5703C59.0586 34.0195 60.1914 33.2578 61.7539 33.2578C63.9609 33.2578 65.4258 34.7617 65.4062 37.2422V44H62.5352V37.75C62.5352 36.4414 61.8125 35.6602 60.6211 35.6602C59.4102 35.6602 58.5898 36.4609 58.5898 37.8672Z" fill="white"/>
</svg>
