<svg width="74" height="74" viewBox="0 0 74 74" fill="none" xmlns="http://www.w3.org/2000/svg">
<rect x="0.5" y="0.5" width="73" height="73" rx="19.5" stroke="#60B4E7"/>
<path d="M27.8105 34.7812C27.5762 33.2188 26.3652 32.2617 24.7246 32.2617C22.5176 32.2617 21.0723 33.9609 21.0723 36.9297C21.0723 39.9766 22.5371 41.5977 24.7051 41.5977C26.3262 41.5977 27.5176 40.6992 27.8105 39.1758L30.7793 39.1953C30.4473 41.8125 28.2598 44.1953 24.666 44.1953C20.877 44.1953 18.084 41.5391 18.084 36.9297C18.084 32.3203 20.9355 29.6641 24.666 29.6641C27.9277 29.6641 30.3887 31.5391 30.7793 34.7812H27.8105ZM40.5059 33.9023C40.3887 32.7891 39.4902 32.125 38.0645 32.125C36.5801 32.125 35.7598 32.8086 35.7402 33.7461C35.7207 34.7617 36.7949 35.2305 38.0059 35.5039L39.2754 35.8164C41.6973 36.3633 43.5137 37.5938 43.5137 39.957C43.5137 42.5547 41.4824 44.1953 38.0449 44.1953C34.627 44.1953 32.4395 42.6133 32.3613 39.5859H35.2129C35.3105 41.0117 36.4434 41.7344 38.0059 41.7344C39.5488 41.7344 40.5449 41.0117 40.5449 39.957C40.5449 39 39.666 38.5508 38.123 38.1602L36.5801 37.7891C34.1973 37.2031 32.7324 36.0117 32.7324 33.9414C32.7324 31.3633 34.998 29.6641 38.084 29.6641C41.209 29.6641 43.2793 31.4023 43.3184 33.9023H40.5059ZM53.1035 33.9023C52.9863 32.7891 52.0879 32.125 50.6621 32.125C49.1777 32.125 48.3574 32.8086 48.3379 33.7461C48.3184 34.7617 49.3926 35.2305 50.6035 35.5039L51.873 35.8164C54.2949 36.3633 56.1113 37.5938 56.1113 39.957C56.1113 42.5547 54.0801 44.1953 50.6426 44.1953C47.2246 44.1953 45.0371 42.6133 44.959 39.5859H47.8105C47.9082 41.0117 49.041 41.7344 50.6035 41.7344C52.1465 41.7344 53.1426 41.0117 53.1426 39.957C53.1426 39 52.2637 38.5508 50.7207 38.1602L49.1777 37.7891C46.7949 37.2031 45.3301 36.0117 45.3301 33.9414C45.3301 31.3633 47.5957 29.6641 50.6816 29.6641C53.8066 29.6641 55.877 31.4023 55.916 33.9023H53.1035Z" fill="#60B4E7"/>
</svg>
