<svg width="74" height="74" viewBox="0 0 74 74" fill="none" xmlns="http://www.w3.org/2000/svg">
<rect x="0.5" y="0.5" width="73" height="73" rx="19.5" stroke="#FF5722"/>
<path d="M10.2812 44V29.8594H13.2109V35.7188H19.3438V29.8594H22.293V44H19.3438V38.1406H13.2109V44H10.2812ZM24.1289 32.2812V29.8594H35.7109V32.2812H31.375V44H28.4648V32.2812H24.1289ZM37.5273 29.8594H41.1602L45.0859 39.4492H45.2422L49.168 29.8594H52.8008V44H49.9492V34.7422H49.832L46.1406 43.9414H44.1875L40.4961 34.7031H40.3789V44H37.5273V29.8594ZM55.1836 44V29.8594H58.1133V41.5781H64.207V44H55.1836Z" fill="#FF5722"/>
</svg>
