<svg width="74" height="74" viewBox="0 0 74 74" fill="none" xmlns="http://www.w3.org/2000/svg">
<rect x="0.5" y="0.5" width="73" height="73" rx="19.5" stroke="#E9B925"/>
<path d="M32.0684 29.8594H34.9785V39.7227C34.9785 42.4766 33.0449 44.1953 30.1934 44.1953C27.6348 44.1953 25.623 42.8477 25.6426 40.0547H28.5723C28.5918 41.168 29.2754 41.832 30.3301 41.832C31.4434 41.832 32.0684 41.1094 32.0684 39.7227V29.8594ZM45.0371 33.9023C44.9199 32.7891 44.0215 32.125 42.5957 32.125C41.1113 32.125 40.291 32.8086 40.2715 33.7461C40.252 34.7617 41.3262 35.2305 42.5371 35.5039L43.8066 35.8164C46.2285 36.3633 48.0449 37.5938 48.0449 39.957C48.0449 42.5547 46.0137 44.1953 42.5762 44.1953C39.1582 44.1953 36.9707 42.6133 36.8926 39.5859H39.7441C39.8418 41.0117 40.9746 41.7344 42.5371 41.7344C44.0801 41.7344 45.0762 41.0117 45.0762 39.957C45.0762 39 44.1973 38.5508 42.6543 38.1602L41.1113 37.7891C38.7285 37.2031 37.2637 36.0117 37.2637 33.9414C37.2637 31.3633 39.5293 29.6641 42.6152 29.6641C45.7402 29.6641 47.8105 31.4023 47.8496 33.9023H45.0371Z" fill="#E9B925"/>
</svg>
