<svg width="74" height="74" viewBox="0 0 74 74" fill="none" xmlns="http://www.w3.org/2000/svg">
<rect x="0.5" y="0.5" width="73" height="73" rx="19.5" stroke="#1A71B5"/>
<path d="M32.2832 29.8594H35.1934V39.7227C35.1934 42.4766 33.2598 44.1953 30.4082 44.1953C27.8496 44.1953 25.8379 42.8477 25.8574 40.0547H28.7871C28.8066 41.168 29.4902 41.832 30.5449 41.832C31.6582 41.832 32.2832 41.1094 32.2832 39.7227V29.8594ZM44.5293 47.9844V42.3008H44.4316C44.0215 43.1797 43.1426 44.1758 41.4238 44.1758C39.002 44.1758 37.1074 42.2422 37.1074 38.707C37.1074 35.0742 39.0801 33.2578 41.4238 33.2578C43.2012 33.2578 44.041 34.3125 44.4316 35.1719H44.5684V33.3945H47.4199V47.9844H44.5293ZM42.3223 41.8711C43.7676 41.8711 44.5879 40.6016 44.5879 38.6875C44.5879 36.7734 43.7676 35.5625 42.3223 35.5625C40.8574 35.5625 40.0762 36.832 40.0762 38.6875C40.0762 40.5625 40.8574 41.8711 42.3223 41.8711Z" fill="#1A71B5"/>
</svg>
