<svg width="74" height="74" viewBox="0 0 74 74" fill="none" xmlns="http://www.w3.org/2000/svg">
<rect x="0.5" y="0.5" width="73" height="73" rx="19.5" stroke="#FF3066"/>
<path d="M32.3516 29.8594V44H29.4219V29.8594H32.3516ZM38.582 44.1758C36.1602 44.1758 34.2656 42.2422 34.2656 38.707C34.2656 35.0742 36.2383 33.2578 38.582 33.2578C40.3594 33.2578 41.1992 34.3125 41.5898 35.1719H41.6875V29.8594H44.5781V44H41.7266V42.3008H41.5898C41.1797 43.1797 40.3008 44.1758 38.582 44.1758ZM39.4805 41.8711C40.9258 41.8711 41.7461 40.6016 41.7461 38.6875C41.7461 36.7734 40.9258 35.5625 39.4805 35.5625C38.0156 35.5625 37.2344 36.832 37.2344 38.6875C37.2344 40.5625 38.0156 41.8711 39.4805 41.8711Z" fill="#FF3066"/>
</svg>
