<svg width="74" height="74" viewBox="0 0 74 74" fill="none" xmlns="http://www.w3.org/2000/svg">
<rect x="0.5" y="0.5" width="73" height="73" rx="19.5" stroke="#90F454"/>
<path d="M8.89055 43H4.40813V30.2734H8.94328C12.7753 30.2734 15.1132 32.6641 15.1132 36.6191C15.1132 40.6094 12.7753 43 8.89055 43ZM7.04485 40.7324H8.78508C11.2109 40.7324 12.4765 39.4668 12.4765 36.6191C12.4765 33.7891 11.2109 32.541 8.80266 32.541H7.04485V40.7324ZM16.6165 43V33.4551H19.1302V35.1074H19.2356C19.5872 33.9297 20.4661 33.3145 21.5384 33.3145C21.802 33.3145 22.136 33.3496 22.3645 33.4023V35.7227C22.1184 35.6523 21.6263 35.582 21.2571 35.582C20.0794 35.582 19.218 36.4082 19.218 37.5684V43H16.6165ZM22.5495 40.3281C22.5495 38.2012 24.2721 37.498 26.1002 37.3926C26.7858 37.3486 28.069 37.2871 28.4733 37.2695V36.4961C28.4557 35.7051 27.9108 35.2305 26.944 35.2305C26.0651 35.2305 25.5026 35.6348 25.362 36.2852H22.8834C23.0416 34.6328 24.483 33.332 27.0143 33.332C29.0885 33.332 31.0573 34.2637 31.0573 36.5664V43H28.5963V41.6816H28.526C28.0514 42.5605 27.1549 43.1758 25.7311 43.1758C23.903 43.1758 22.5495 42.2266 22.5495 40.3281ZM25.0455 40.2578C25.0455 40.9961 25.6432 41.3828 26.4694 41.3828C27.6471 41.3828 28.4909 40.5918 28.4733 39.5898V38.8867C28.0778 38.9043 26.9704 38.9658 26.5221 39.0098C25.6256 39.0977 25.0455 39.5195 25.0455 40.2578ZM34.5645 43L31.9629 33.4551H34.5996L36.0938 39.9062H36.1816L37.7461 33.4551H40.3301L41.9121 39.8711H42L43.4766 33.4551H46.1133L43.4941 43H40.752L39.0996 36.9355H38.9766L37.3242 43H34.5645ZM47.0716 43V33.4551H49.6732V43H47.0716ZM48.3724 32.207C47.5814 32.207 46.9486 31.6094 46.9486 30.8887C46.9486 30.1504 47.5814 29.5527 48.3724 29.5527C49.1459 29.5527 49.7787 30.1504 49.7787 30.8887C49.7787 31.6094 49.1459 32.207 48.3724 32.207ZM53.9363 37.4805V43H51.3347V33.4551H53.8132V35.125H53.9187C54.3581 34.0176 55.3777 33.332 56.7839 33.332C58.7702 33.332 60.0886 34.6855 60.071 36.918V43H57.487V37.375C57.487 36.1973 56.8366 35.4941 55.7644 35.4941C54.6745 35.4941 53.9363 36.2148 53.9363 37.4805ZM66.0216 46.7793C63.3848 46.7793 61.7677 45.6016 61.6095 43.791H64.1759C64.3165 44.5469 65.0372 44.8984 66.0743 44.8984C67.2872 44.8984 68.0958 44.3887 68.0958 43.0527V41.3125H67.9727C67.6212 42.0859 66.7774 42.8594 65.2481 42.8594C63.086 42.8594 61.3634 41.3477 61.3634 38.166C61.3634 34.9316 63.1388 33.332 65.2481 33.332C66.8477 33.332 67.6212 34.2812 67.9727 35.0547H68.0782V33.4551H70.6622V43.1055C70.6622 45.5312 68.7286 46.7793 66.0216 46.7793ZM66.0567 40.9082C67.3575 40.9082 68.0958 39.8887 68.0958 38.2012C68.0958 36.4961 67.3575 35.4062 66.0567 35.4062C64.7384 35.4062 64.0352 36.5488 64.0352 38.2012C64.0352 39.8535 64.7384 40.9082 66.0567 40.9082Z" fill="#90F454"/>
</svg>
