<svg width="74" height="74" viewBox="0 0 74 74" fill="none" xmlns="http://www.w3.org/2000/svg">
<rect x="0.5" y="0.5" width="73" height="73" rx="19.5" stroke="#30A4F8"/>
<path d="M26.5703 44V29.8594H32.1172C35.3398 29.8594 37.1758 31.832 37.1758 34.625C37.1758 37.457 35.3008 39.3906 32.0391 39.3906H29.5V44H26.5703ZM29.5 37.0273H31.5703C33.3086 37.0273 34.1484 36.0508 34.1484 34.625C34.1484 33.2188 33.3086 32.2617 31.5703 32.2617H29.5V37.0273ZM45.0273 36.5391C44.9102 35.7969 44.2461 35.3086 43.2891 35.3086C42.3516 35.3086 41.6289 35.7578 41.6484 36.4023C41.6289 36.8711 42.0195 37.2422 43.0156 37.457L44.9102 37.8477C46.9609 38.2773 47.957 39.1953 47.9766 40.7188C47.957 42.8086 46.082 44.2148 43.2695 44.2148C40.3984 44.2148 38.7188 42.9258 38.4844 40.8555H41.3945C41.5312 41.6953 42.2148 42.125 43.2695 42.125C44.3242 42.125 45.0273 41.6953 45.0273 41.0117C45.0273 40.4648 44.5781 40.1328 43.582 39.918L41.8242 39.5664C39.8125 39.1758 38.7578 38.1211 38.7773 36.5586C38.7578 34.5273 40.5156 33.2578 43.25 33.2578C45.9258 33.2578 47.5859 34.5273 47.7422 36.5391H45.0273Z" fill="#31A8FF"/>
</svg>
