<svg width="74" height="74" viewBox="0 0 74 74" fill="none" xmlns="http://www.w3.org/2000/svg">
<rect x="0.5" y="0.5" width="73" height="73" rx="19.5" stroke="#9393F5"/>
<path d="M28.5645 44V29.8594H34.1113C37.334 29.8594 39.1699 31.832 39.1699 34.625C39.1699 37.457 37.2949 39.3906 34.0332 39.3906H31.4941V44H28.5645ZM31.4941 37.0273H33.5645C35.3027 37.0273 36.1426 36.0508 36.1426 34.625C36.1426 33.2188 35.3027 32.2617 33.5645 32.2617H31.4941V37.0273ZM40.9668 44V33.3945H43.7598V35.2305H43.877C44.2676 33.9219 45.2441 33.2383 46.4355 33.2383C46.7285 33.2383 47.0996 33.2773 47.3535 33.3359V35.9141C47.0801 35.8359 46.5332 35.7578 46.123 35.7578C44.8145 35.7578 43.8574 36.6758 43.8574 37.9648V44H40.9668Z" fill="#9999FF"/>
</svg>
