<svg width="63" height="63" viewBox="0 0 63 63" fill="none" xmlns="http://www.w3.org/2000/svg">
<circle cx="31.5" cy="31.5" r="31" stroke="#101010"/>
<g clip-path="url(#clip0_332_330)">
<path d="M24.0203 16.3333C23.6098 16.3333 23.2766 16.6767 23.2766 17.0998C23.2766 17.5229 23.6098 17.8663 24.0203 17.8663C26.1502 17.8663 27.8845 20.3898 27.8845 23.4927C27.8845 26.5956 26.2454 28.8002 24.0709 28.8002C23.2171 28.8002 22.5627 28.4353 22.0689 27.8619C23.4224 27.7638 24.5111 26.1204 24.6153 24.0477C24.5379 24.0569 24.4546 24.063 24.3713 24.063C23.6574 24.063 23.0803 23.7012 23.0803 23.2535C23.0803 22.8059 23.6574 22.4441 24.3713 22.4441C24.413 22.4441 24.4546 22.4502 24.4963 22.4533C24.1482 20.7853 23.1368 19.5742 21.941 19.5742C20.4625 19.5742 19.2607 21.4322 19.2607 23.7227C19.2607 24.2776 19.3321 24.805 19.46 25.2895C19.9271 28.4046 21.6316 30.3333 24.0709 30.3333C27.0932 30.3333 29.3719 27.3928 29.3719 23.4927C29.3719 19.5926 26.9712 16.3333 24.0203 16.3333Z" fill="#101010"/>
<path d="M38.0233 16.3333C37.6128 16.3333 37.2796 16.6767 37.2796 17.0998C37.2796 17.5229 37.6128 17.8663 38.0233 17.8663C40.1532 17.8663 41.8875 20.3898 41.8875 23.4927C41.8875 26.5956 40.2484 28.8002 38.0739 28.8002C37.2201 28.8002 36.5657 28.4353 36.0719 27.8619C37.4254 27.7638 38.5141 26.1204 38.6182 24.0477C38.5409 24.0569 38.4576 24.063 38.3743 24.063C37.6604 24.063 37.0833 23.7012 37.0833 23.2535C37.0833 22.8059 37.6604 22.4441 38.3743 22.4441C38.416 22.4441 38.4576 22.4502 38.4992 22.4533C38.1512 20.7853 37.1398 19.5742 35.9439 19.5742C34.4625 19.5742 33.2607 21.4322 33.2607 23.7227C33.2607 24.2776 33.3321 24.805 33.46 25.2895C33.9271 28.4046 35.6316 30.3333 38.0709 30.3333C41.0932 30.3333 43.3719 27.3928 43.3719 23.4927C43.3719 19.5926 40.9742 16.3333 38.0233 16.3333Z" fill="#101010"/>
</g>
<defs>
<clipPath id="clip0_332_330">
<rect width="30.4763" height="17.4796" fill="white" transform="translate(16 16.1836)"/>
</clipPath>
</defs>
</svg>
