<svg width="160" height="286" viewBox="0 0 160 286" fill="none" xmlns="http://www.w3.org/2000/svg">
<g clip-path="url(#clip0_520_1187)">
<path d="M52.7547 175.891C53.3001 175.891 53.0274 175.867 53.5728 175.966C57.2419 176.633 59.473 181.305 58.5558 186.398C57.6385 191.491 53.9695 194.828 50.3004 194.185C46.0364 193.419 44.4994 189.488 45.8629 184.47" stroke="#C1FF3E" stroke-width="2" stroke-linecap="round" stroke-linejoin="round"/>
<path d="M51.8866 187.609C50.5974 187.387 49.6554 186.571 49.8041 185.78C49.9529 184.989 51.0933 184.568 52.3824 184.791C52.4815 184.791 52.6055 184.84 52.7047 184.865C52.7047 182.319 51.6139 180.267 49.8785 179.847C47.6473 179.303 45.1682 181.75 44.3254 185.285C43.5073 188.82 44.6476 192.133 46.8788 192.677C49.0356 193.196 51.3907 190.971 52.308 187.659C52.1593 187.659 52.0105 187.634 51.8618 187.609H51.8866Z" fill="#C1FF3E"/>
<path d="M77.867 180.39C78.4124 180.39 78.1397 180.366 78.6851 180.465C82.3542 181.132 84.5854 185.804 83.6681 190.897C82.7508 195.99 79.0818 199.327 75.4127 198.684C71.1487 197.918 69.6117 193.987 70.9752 188.969" stroke="#C1FF3E" stroke-width="2" stroke-linecap="round" stroke-linejoin="round"/>
<path d="M76.9751 192.108C75.6859 191.886 74.7439 191.07 74.8926 190.279C75.0414 189.488 76.1817 189.067 77.4709 189.29C77.57 189.29 77.694 189.339 77.7931 189.364C77.7931 186.818 76.7024 184.766 74.9918 184.346C72.7606 183.802 70.2815 186.249 69.4386 189.784C68.6205 193.319 69.7609 196.632 71.9921 197.176C74.1489 197.695 76.504 195.47 77.4213 192.158C77.2725 192.158 77.1238 192.133 76.9751 192.108Z" fill="#C1FF3E"/>
<path d="M144.729 99.8243C145.547 95.8441 146.142 91.0482 146.44 89.1447C146.861 86.4006 144.332 83.4588 139.895 80.517C116.591 65.0168 76.6038 56.9576 68.1502 56.3149C59.7213 55.6721 58.4569 62.0008 58.4569 62.0008L55.5068 68.453C63.0432 66.0303 71.0755 64.7201 79.4052 64.7201C106.7 64.7201 130.722 78.6876 144.704 99.8243H144.729Z" stroke="#C1FF3E" stroke-width="2" stroke-linecap="round" stroke-linejoin="round"/>
<path d="M21.7412 195.322C17.7747 204.271 7.06505 230.723 8.62687 252.008C8.62687 252.008 -1.66132 261.625 4.98262 272.675C11.6266 283.725 22.7081 268.893 19.5348 255.642C19.5348 255.642 23.2287 217.967 31.8063 204.519C28.1868 201.75 24.8153 198.684 21.7412 195.322Z" fill="black" stroke="#C1FF3E" stroke-width="2" stroke-linecap="round" stroke-linejoin="round"/>
<path d="M74.3969 220.488C69.4139 232.775 61.1338 254.53 60.6875 263.998C60.6875 263.998 52.5809 272.527 55.531 281.352C58.4812 290.178 70.827 280.413 71.1245 268.423C71.1245 268.423 82.4043 235.272 89.8663 219.969C86.4452 220.414 82.9745 220.686 79.4294 220.686C77.7436 220.686 76.0578 220.612 74.3969 220.513V220.488Z" fill="black" stroke="#C1FF3E" stroke-width="2" stroke-linecap="round" stroke-linejoin="round"/>
<path d="M144.729 99.8244C130.747 78.6877 106.724 64.7202 79.4295 64.7202C71.0998 64.7202 63.0676 66.0304 55.5312 68.4531C24.022 78.5394 1.23926 107.958 1.23926 142.691C1.23926 162.962 8.99879 181.429 21.7413 195.298C24.8153 198.635 28.1869 201.725 31.8063 204.494C43.7555 213.666 58.4317 219.45 74.397 220.464C76.058 220.563 77.7437 220.637 79.4295 220.637C82.9746 220.637 86.4453 220.39 89.8665 219.92C128.119 214.828 157.62 182.196 157.62 142.666C157.62 126.82 152.86 112.086 144.729 99.7996V99.8244Z" stroke="#C1FF3E" stroke-width="2" stroke-linecap="round" stroke-linejoin="round"/>
<path d="M79.4297 58.1441C79.4297 58.1441 93.9571 43.4845 100.998 15.3022" stroke="#C1FF3E" stroke-width="2" stroke-linecap="round" stroke-linejoin="round"/>
<path d="M115.624 15.3022C112.253 35.4995 93.6348 61.5062 93.6348 61.5062" stroke="#C1FF3E" stroke-width="2" stroke-linecap="round" stroke-linejoin="round"/>
<path d="M117.954 69.4665C117.954 69.4665 134.39 37.8234 136.299 23.5098" stroke="#C1FF3E" stroke-width="2" stroke-linecap="round" stroke-linejoin="round"/>
<path d="M129.557 74.6085C129.557 74.6085 145.572 46.8713 147.48 24.9683" stroke="#C1FF3E" stroke-width="2" stroke-linecap="round" stroke-linejoin="round"/>
<path d="M101.171 49.7884C122.169 72.087 127.028 28.9731 127.127 20.024C127.227 11.075 121.971 -1.11262 106.13 1.63144C90.2882 4.3755 94.7753 33.6207 94.7753 33.6207" stroke="#C1FF3E" stroke-width="2" stroke-linecap="round" stroke-linejoin="round"/>
<path d="M128.763 46.4758C128.763 46.4758 124.92 21.6062 134.415 15.3023C143.91 8.99842 157.843 14.2888 158.686 28.6765C159.528 43.0643 154.05 74.5839 136.324 61.358" stroke="#C1FF3E" stroke-width="2" stroke-linecap="round" stroke-linejoin="round"/>
<path d="M90.2139 42.8418C90.2139 42.8418 97.1305 40.1967 102.882 46.8714" stroke="#C1FF3E" stroke-width="2" stroke-linecap="round" stroke-linejoin="round"/>
<path d="M94.5771 34.0658C94.5771 34.0658 102.014 31.5195 107.369 38.4167" stroke="#C1FF3E" stroke-width="2" stroke-linecap="round" stroke-linejoin="round"/>
<path d="M98.6426 23.5098C98.6426 23.5098 107.443 19.1836 112.525 26.6247" stroke="#C1FF3E" stroke-width="2" stroke-linecap="round" stroke-linejoin="round"/>
<path d="M125.541 53.7936C125.541 53.7936 133.474 49.2696 137.738 58.1445" stroke="#C1FF3E" stroke-width="2" stroke-linecap="round" stroke-linejoin="round"/>
<path d="M130.151 43.1631C130.151 43.1631 136.721 39.628 141.729 48.2804" stroke="#C1FF3E" stroke-width="2" stroke-linecap="round" stroke-linejoin="round"/>
<path d="M133.399 34.5601C133.399 34.5601 140.415 31.7172 144.927 38.4166" stroke="#C1FF3E" stroke-width="2" stroke-linecap="round" stroke-linejoin="round"/>
</g>
<defs>
<clipPath id="clip0_520_1187">
<rect width="160" height="286" fill="white"/>
</clipPath>
</defs>
</svg>
