<svg width="158" height="158" viewBox="0 0 158 158" fill="none" xmlns="http://www.w3.org/2000/svg">
<path d="M53.9298 100V58.9258H63.4356V100H53.9298ZM86.0924 100.469C83.1194 100.469 80.4398 99.8044 78.0536 98.4744C75.6674 97.1052 73.7701 95.208 72.3619 92.7827C70.9927 90.3573 70.3082 87.5017 70.3082 84.2158C70.3082 80.8907 70.9927 78.0155 72.3619 75.5902C73.7701 73.1648 75.6674 71.2872 78.0536 69.9571C80.4398 68.6271 83.1194 67.9621 86.0924 67.9621C88.7525 67.9621 91.08 68.5489 93.075 69.7224C95.0701 70.896 96.6152 72.6759 97.7105 75.0621C98.8059 77.4483 99.3535 80.4995 99.3535 84.2158C99.3535 87.8929 98.8254 90.9441 97.7692 93.3694C96.713 95.7557 95.1874 97.5355 93.1924 98.7091C91.2365 99.8826 88.8698 100.469 86.0924 100.469ZM87.6767 92.9587C89.1632 92.9587 90.5128 92.6066 91.7254 91.9025C92.9381 91.1984 93.8965 90.2009 94.6006 88.91C95.3439 87.5799 95.7155 86.0152 95.7155 84.2158C95.7155 82.3772 95.3439 80.8125 94.6006 79.5216C93.8965 78.2307 92.9381 77.2332 91.7254 76.529C90.5128 75.8249 89.1632 75.4728 87.6767 75.4728C86.1511 75.4728 84.7819 75.8249 83.5693 76.529C82.3566 77.2332 81.3787 78.2307 80.6354 79.5216C79.9313 80.8125 79.5792 82.3772 79.5792 84.2158C79.5792 86.0152 79.9313 87.5799 80.6354 88.91C81.3787 90.2009 82.3566 91.1984 83.5693 91.9025C84.7819 92.6066 86.1511 92.9587 87.6767 92.9587ZM95.9502 100V93.5455L96.1263 84.1571L95.5395 74.8274V56.4613H104.693V100H95.9502Z" fill="#FF3066"/>
<mask id="path-2-inside-1_354_365" fill="white">
<path d="M151.383 78.6768C154.639 78.6768 157.299 81.32 157.052 84.5666C155.96 98.9385 150.941 112.78 142.491 124.55C132.891 137.921 119.347 147.946 103.764 153.214C88.1819 158.482 71.3461 158.728 55.6267 153.917C39.9072 149.105 26.0957 139.48 16.1362 126.394C6.17667 113.308 0.570647 97.4216 0.107228 80.9704C-0.35619 64.5192 4.34633 48.3317 13.5529 34.6865C22.7594 21.0414 36.0064 10.6255 51.4291 4.90516C65.0029 -0.129412 79.6606 -1.30374 93.7877 1.45289C96.9844 2.07665 98.8275 5.34456 97.9642 8.48646V8.48646C97.1003 11.6305 93.8532 13.4533 90.6462 12.8718C78.9089 10.7437 66.7741 11.7954 55.5163 15.9709C42.407 20.8332 31.1471 29.6867 23.3215 41.2851C15.4959 52.8835 11.4988 66.6428 11.8927 80.6264C12.2866 94.6099 17.0517 108.113 25.5173 119.236C33.9829 130.359 45.7227 138.541 59.0843 142.631C72.4458 146.72 86.7562 146.512 100.001 142.034C113.246 137.556 124.759 129.034 132.919 117.669C139.929 107.905 144.161 96.4646 145.223 84.5646C145.512 81.3214 148.127 78.6768 151.383 78.6768V78.6768Z"/>
</mask>
<path d="M151.383 78.6768C154.639 78.6768 157.299 81.32 157.052 84.5666C155.96 98.9385 150.941 112.78 142.491 124.55C132.891 137.921 119.347 147.946 103.764 153.214C88.1819 158.482 71.3461 158.728 55.6267 153.917C39.9072 149.105 26.0957 139.48 16.1362 126.394C6.17667 113.308 0.570647 97.4216 0.107228 80.9704C-0.35619 64.5192 4.34633 48.3317 13.5529 34.6865C22.7594 21.0414 36.0064 10.6255 51.4291 4.90516C65.0029 -0.129412 79.6606 -1.30374 93.7877 1.45289C96.9844 2.07665 98.8275 5.34456 97.9642 8.48646V8.48646C97.1003 11.6305 93.8532 13.4533 90.6462 12.8718C78.9089 10.7437 66.7741 11.7954 55.5163 15.9709C42.407 20.8332 31.1471 29.6867 23.3215 41.2851C15.4959 52.8835 11.4988 66.6428 11.8927 80.6264C12.2866 94.6099 17.0517 108.113 25.5173 119.236C33.9829 130.359 45.7227 138.541 59.0843 142.631C72.4458 146.72 86.7562 146.512 100.001 142.034C113.246 137.556 124.759 129.034 132.919 117.669C139.929 107.905 144.161 96.4646 145.223 84.5646C145.512 81.3214 148.127 78.6768 151.383 78.6768V78.6768Z" stroke="#FF3066" stroke-width="12.6382" mask="url(#path-2-inside-1_354_365)"/>
</svg>
