<svg width="158" height="158" viewBox="0 0 158 158" fill="none" xmlns="http://www.w3.org/2000/svg">
<path d="M55.8106 100.704C53.0332 100.704 50.4709 100.196 48.1238 99.1785C45.8159 98.1223 43.9186 96.6358 42.4321 94.719L47.7131 88.3819C48.8475 89.8684 50.0406 91.0028 51.2924 91.7852C52.5442 92.5284 53.8938 92.9 55.3412 92.9C59.2139 92.9 61.1502 90.6312 61.1502 86.0934V66.5539H46.7156V58.9258H70.5973V85.5653C70.5973 90.6507 69.3455 94.4452 66.8419 96.9488C64.3384 99.4523 60.6613 100.704 55.8106 100.704ZM92.7783 100.469C89.8053 100.469 87.1257 99.8044 84.7395 98.4744C82.3533 97.1444 80.456 95.2667 79.0478 92.8414C77.6786 90.416 76.9941 87.5408 76.9941 84.2158C76.9941 80.9298 77.6786 78.0742 79.0478 75.6489C80.456 73.2235 82.3533 71.3458 84.7395 70.0158C87.1257 68.6467 89.8053 67.9621 92.7783 67.9621C95.5557 67.9621 97.9224 68.5489 99.8783 69.7224C101.873 70.896 103.399 72.6759 104.455 75.0621C105.511 77.4483 106.039 80.4995 106.039 84.2158C106.039 87.8929 105.492 90.9441 104.396 93.3694C103.301 95.7557 101.756 97.5355 99.7609 98.7091C97.7659 99.8826 95.4383 100.469 92.7783 100.469ZM94.3626 92.9587C95.8491 92.9587 97.1987 92.6066 98.4113 91.9025C99.624 91.1984 100.582 90.2009 101.287 88.91C102.03 87.5799 102.401 86.0152 102.401 84.2158C102.401 82.3772 102.03 80.8125 101.287 79.5216C100.582 78.2307 99.624 77.2332 98.4113 76.529C97.1987 75.8249 95.8491 75.4728 94.3626 75.4728C92.837 75.4728 91.4678 75.8249 90.2552 76.529C89.0425 77.2332 88.0645 78.2307 87.3213 79.5216C86.6172 80.8125 86.2651 82.3772 86.2651 84.2158C86.2651 86.0152 86.6172 87.5799 87.3213 88.91C88.0645 90.2009 89.0425 91.1984 90.2552 91.9025C91.4678 92.6066 92.837 92.9587 94.3626 92.9587ZM102.225 111.383V93.6042L102.812 84.2744L102.636 74.8861V68.4315H111.379V111.383H102.225Z" fill="#1A71B5"/>
<mask id="path-2-inside-1_354_349" fill="white">
<path d="M138.319 37.0072C140.992 35.1399 144.692 35.7833 146.348 38.588C155.348 53.8246 158.976 71.7205 156.537 89.3779C153.828 108.992 143.832 126.869 128.544 139.444C113.255 152.019 93.7975 158.367 74.053 157.222C54.3085 156.076 35.7285 147.521 22.0195 133.264C8.31046 119.006 0.480358 100.094 0.0912177 80.3009C-0.297922 60.5073 6.7825 41.2872 19.92 26.4749C33.0575 11.6626 51.2862 2.34707 70.9697 0.386669C88.6921 -1.37842 106.421 2.9359 121.288 12.5231C124.023 14.2867 124.524 18.0037 122.56 20.6023V20.6023C120.594 23.2044 116.903 23.6954 114.142 21.9664C101.661 14.1536 86.8909 10.6596 72.1258 12.1302C55.3949 13.7965 39.9004 21.7147 28.7336 34.3052C17.5667 46.8956 11.5483 63.2327 11.8791 80.0573C12.2099 96.8818 18.8655 112.957 30.5181 125.076C42.1708 137.195 57.9638 144.466 74.7466 145.44C91.5295 146.414 108.068 141.018 121.064 130.329C134.059 119.641 142.556 104.445 144.858 87.7728C146.891 73.0549 143.965 58.1421 136.637 45.357C135.02 42.5345 135.65 38.8721 138.319 37.0072V37.0072Z"/>
</mask>
<path d="M138.319 37.0072C140.992 35.1399 144.692 35.7833 146.348 38.588C155.348 53.8246 158.976 71.7205 156.537 89.3779C153.828 108.992 143.832 126.869 128.544 139.444C113.255 152.019 93.7975 158.367 74.053 157.222C54.3085 156.076 35.7285 147.521 22.0195 133.264C8.31046 119.006 0.480358 100.094 0.0912177 80.3009C-0.297922 60.5073 6.7825 41.2872 19.92 26.4749C33.0575 11.6626 51.2862 2.34707 70.9697 0.386669C88.6921 -1.37842 106.421 2.9359 121.288 12.5231C124.023 14.2867 124.524 18.0037 122.56 20.6023V20.6023C120.594 23.2044 116.903 23.6954 114.142 21.9664C101.661 14.1536 86.8909 10.6596 72.1258 12.1302C55.3949 13.7965 39.9004 21.7147 28.7336 34.3052C17.5667 46.8956 11.5483 63.2327 11.8791 80.0573C12.2099 96.8818 18.8655 112.957 30.5181 125.076C42.1708 137.195 57.9638 144.466 74.7466 145.44C91.5295 146.414 108.068 141.018 121.064 130.329C134.059 119.641 142.556 104.445 144.858 87.7728C146.891 73.0549 143.965 58.1421 136.637 45.357C135.02 42.5345 135.65 38.8721 138.319 37.0072V37.0072Z" stroke="#1A71B5" stroke-width="12.6382" mask="url(#path-2-inside-1_354_349)"/>
</svg>
