<svg width="158" height="158" viewBox="0 0 158 158" fill="none" xmlns="http://www.w3.org/2000/svg">
<path d="M56.8577 100.704C54.0803 100.704 51.5181 100.196 49.171 99.1785C46.863 98.1223 44.9658 96.6358 43.4793 94.719L48.7603 88.3819C49.8947 89.8684 51.0878 91.0028 52.3396 91.7852C53.5914 92.5284 54.941 92.9 56.3883 92.9C60.261 92.9 62.1974 90.6312 62.1974 86.0934V66.5539H47.7627V58.9258H71.6445V85.5653C71.6445 90.6507 70.3927 94.4452 67.8891 96.9488C65.3855 99.4523 61.7084 100.704 56.8577 100.704ZM94.5296 100.704C91.2436 100.704 88.0946 100.274 85.0825 99.4132C82.0704 98.5135 79.6451 97.3595 77.8065 95.9513L81.0338 88.7926C82.7941 90.0444 84.8674 91.081 87.2536 91.9025C89.6789 92.6849 92.1238 93.0761 94.5883 93.0761C96.4659 93.0761 97.972 92.9 99.1064 92.548C100.28 92.1568 101.141 91.6287 101.688 90.9637C102.236 90.2987 102.51 89.5359 102.51 88.6753C102.51 87.5799 102.079 86.7193 101.219 86.0934C100.358 85.4284 99.2238 84.9003 97.8155 84.5092C96.4073 84.0789 94.8425 83.6877 93.1213 83.3356C91.4392 82.9444 89.7376 82.475 88.0164 81.9273C86.3343 81.3797 84.7891 80.6756 83.3809 79.815C81.9726 78.9544 80.8186 77.8199 79.9189 76.4117C79.0583 75.0034 78.628 73.204 78.628 71.0133C78.628 68.6662 79.2539 66.5343 80.5057 64.6175C81.7966 62.6616 83.7134 61.1164 86.2561 59.982C88.8379 58.8084 92.0651 58.2217 95.9378 58.2217C98.5196 58.2217 101.062 58.5346 103.566 59.1605C106.069 59.7473 108.28 60.647 110.196 61.8597L107.263 69.077C105.346 67.9817 103.429 67.1798 101.512 66.6712C99.5954 66.1236 97.7177 65.8497 95.8792 65.8497C94.0406 65.8497 92.5345 66.0649 91.361 66.4952C90.1875 66.9255 89.3464 67.4927 88.8379 68.1968C88.3293 68.8618 88.0751 69.6442 88.0751 70.5439C88.0751 71.6001 88.5054 72.4607 89.366 73.1257C90.2266 73.7516 91.361 74.2602 92.7693 74.6513C94.1775 75.0425 95.7227 75.4337 97.4048 75.8249C99.126 76.2161 100.828 76.6659 102.51 77.1745C104.231 77.683 105.796 78.3676 107.204 79.2282C108.612 80.0888 109.747 81.2232 110.607 82.6315C111.507 84.0397 111.957 85.8196 111.957 87.9711C111.957 90.2791 111.311 92.3915 110.02 94.3083C108.73 96.2251 106.793 97.7703 104.211 98.9438C101.669 100.117 98.4414 100.704 94.5296 100.704Z" fill="#E9B925"/>
<mask id="path-2-inside-1_353_345" fill="white">
<path d="M149.463 62.0036C152.634 61.2568 155.83 63.2207 156.333 66.438C158.782 82.0987 156.452 98.1913 149.573 112.58C141.844 128.749 128.835 141.798 112.699 149.569C96.5622 157.34 78.2644 159.367 60.8316 155.316C43.3988 151.265 27.8753 141.378 16.8286 127.29C5.78192 113.202 -0.126236 95.7573 0.0812856 77.8408C0.288807 59.9243 6.59957 42.6095 17.9699 28.76C29.3401 14.9105 45.0888 5.35595 62.6111 1.67665C78.2043 -1.59757 94.3709 -0.0444733 108.984 6.05429C111.988 7.30809 113.136 10.8791 111.66 13.7832V13.7832C110.183 16.6906 106.636 17.8241 103.612 16.6093C91.409 11.7073 77.982 10.5052 65.021 13.2267C50.127 16.3541 36.7407 24.4754 27.0759 36.2475C17.4112 48.0196 12.0471 62.7372 11.8707 77.9662C11.6943 93.1952 16.7162 108.023 26.1059 119.998C35.4956 131.973 48.6905 140.377 63.5084 143.82C78.3263 147.264 93.8794 145.54 107.596 138.935C121.312 132.33 132.369 121.238 138.939 107.495C144.658 95.5304 146.678 82.1802 144.815 69.1435C144.355 65.9218 146.294 62.7501 149.463 62.0036V62.0036Z"/>
</mask>
<path d="M149.463 62.0036C152.634 61.2568 155.83 63.2207 156.333 66.438C158.782 82.0987 156.452 98.1913 149.573 112.58C141.844 128.749 128.835 141.798 112.699 149.569C96.5622 157.34 78.2644 159.367 60.8316 155.316C43.3988 151.265 27.8753 141.378 16.8286 127.29C5.78192 113.202 -0.126236 95.7573 0.0812856 77.8408C0.288807 59.9243 6.59957 42.6095 17.9699 28.76C29.3401 14.9105 45.0888 5.35595 62.6111 1.67665C78.2043 -1.59757 94.3709 -0.0444733 108.984 6.05429C111.988 7.30809 113.136 10.8791 111.66 13.7832V13.7832C110.183 16.6906 106.636 17.8241 103.612 16.6093C91.409 11.7073 77.982 10.5052 65.021 13.2267C50.127 16.3541 36.7407 24.4754 27.0759 36.2475C17.4112 48.0196 12.0471 62.7372 11.8707 77.9662C11.6943 93.1952 16.7162 108.023 26.1059 119.998C35.4956 131.973 48.6905 140.377 63.5084 143.82C78.3263 147.264 93.8794 145.54 107.596 138.935C121.312 132.33 132.369 121.238 138.939 107.495C144.658 95.5304 146.678 82.1802 144.815 69.1435C144.355 65.9218 146.294 62.7501 149.463 62.0036V62.0036Z" stroke="#E9B925" stroke-width="12.6382" mask="url(#path-2-inside-1_353_345)"/>
</svg>
