<svg width="158" height="158" viewBox="0 0 158 158" fill="none" xmlns="http://www.w3.org/2000/svg">
<path d="M45.0667 77.4092H64.7823V85.0373H45.0667V77.4092ZM45.7708 100H36.265V58.9258H67.3054V66.5539H45.7708V100ZM73.0952 100V68.4315H82.2489V100H73.0952ZM77.6721 64.0307C75.99 64.0307 74.6208 63.5417 73.5646 62.5638C72.5084 61.5858 71.9803 60.3732 71.9803 58.9258C71.9803 57.4784 72.5084 56.2657 73.5646 55.2878C74.6208 54.3098 75.99 53.8209 77.6721 53.8209C79.3541 53.8209 80.7233 54.2903 81.7795 55.2291C82.8357 56.1288 83.3638 57.3024 83.3638 58.7498C83.3638 60.2754 82.8357 61.5467 81.7795 62.5638C80.7624 63.5417 79.3933 64.0307 77.6721 64.0307ZM105.59 111.853C102.617 111.853 99.7415 111.481 96.9641 110.738C94.2258 110.034 91.9374 108.958 90.0988 107.511L93.7368 100.939C95.0669 102.034 96.749 102.895 98.7831 103.521C100.856 104.186 102.891 104.518 104.886 104.518C108.132 104.518 110.479 103.794 111.927 102.347C113.413 100.9 114.157 98.7482 114.157 95.8926V91.1397L114.743 83.2183L114.626 75.2381V68.4315H123.31V94.719C123.31 100.587 121.785 104.909 118.733 107.687C115.682 110.464 111.301 111.853 105.59 111.853ZM104.181 98.4744C101.248 98.4744 98.5875 97.8485 96.2013 96.5967C93.8542 95.3058 91.957 93.5259 90.5096 91.2571C89.1013 88.9491 88.3972 86.2695 88.3972 83.2183C88.3972 80.1279 89.1013 77.4483 90.5096 75.1794C91.957 72.8715 93.8542 71.0916 96.2013 69.8398C98.5875 68.588 101.248 67.9621 104.181 67.9621C106.841 67.9621 109.189 68.5098 111.223 69.6051C113.257 70.6613 114.841 72.3238 115.976 74.5927C117.11 76.8224 117.677 79.6976 117.677 83.2183C117.677 86.6998 117.11 89.575 115.976 91.8438C114.841 94.0736 113.257 95.7361 111.223 96.8314C109.189 97.9267 106.841 98.4744 104.181 98.4744ZM106 90.9637C107.604 90.9637 109.032 90.6507 110.284 90.0248C111.536 89.3598 112.514 88.4405 113.218 87.267C113.922 86.0934 114.274 84.7439 114.274 83.2183C114.274 81.6535 113.922 80.3039 113.218 79.1695C112.514 77.996 111.536 77.0962 110.284 76.4703C109.032 75.8053 107.604 75.4728 106 75.4728C104.397 75.4728 102.969 75.8053 101.717 76.4703C100.465 77.0962 99.4677 77.996 98.7244 79.1695C98.0203 80.3039 97.6682 81.6535 97.6682 83.2183C97.6682 84.7439 98.0203 86.0934 98.7244 87.267C99.4677 88.4405 100.465 89.3598 101.717 90.0248C102.969 90.6507 104.397 90.9637 106 90.9637Z" fill="#05CA79"/>
<mask id="path-2-inside-1_354_353" fill="white">
<path d="M138.319 37.0072C140.992 35.1399 144.692 35.7833 146.348 38.588C155.348 53.8246 158.976 71.7205 156.537 89.3779C153.828 108.992 143.832 126.869 128.544 139.444C113.255 152.019 93.7975 158.367 74.053 157.222C54.3085 156.076 35.7285 147.521 22.0195 133.264C8.31046 119.006 0.480358 100.094 0.0912177 80.3009C-0.297922 60.5073 6.7825 41.2872 19.92 26.4749C33.0575 11.6626 51.2862 2.34707 70.9697 0.386669C88.6921 -1.37842 106.421 2.9359 121.288 12.5231C124.023 14.2867 124.524 18.0037 122.56 20.6023V20.6023C120.594 23.2044 116.903 23.6954 114.142 21.9664C101.661 14.1536 86.8909 10.6596 72.1258 12.1302C55.3949 13.7965 39.9004 21.7147 28.7336 34.3052C17.5667 46.8956 11.5483 63.2327 11.8791 80.0573C12.2099 96.8818 18.8655 112.957 30.5181 125.076C42.1708 137.195 57.9638 144.466 74.7466 145.44C91.5295 146.414 108.068 141.018 121.064 130.329C134.059 119.641 142.556 104.445 144.858 87.7728C146.891 73.0549 143.965 58.1421 136.637 45.357C135.02 42.5345 135.65 38.8721 138.319 37.0072V37.0072Z"/>
</mask>
<path d="M138.319 37.0072C140.992 35.1399 144.692 35.7833 146.348 38.588C155.348 53.8246 158.976 71.7205 156.537 89.3779C153.828 108.992 143.832 126.869 128.544 139.444C113.255 152.019 93.7975 158.367 74.053 157.222C54.3085 156.076 35.7285 147.521 22.0195 133.264C8.31046 119.006 0.480358 100.094 0.0912177 80.3009C-0.297922 60.5073 6.7825 41.2872 19.92 26.4749C33.0575 11.6626 51.2862 2.34707 70.9697 0.386669C88.6921 -1.37842 106.421 2.9359 121.288 12.5231C124.023 14.2867 124.524 18.0037 122.56 20.6023V20.6023C120.594 23.2044 116.903 23.6954 114.142 21.9664C101.661 14.1536 86.8909 10.6596 72.1258 12.1302C55.3949 13.7965 39.9004 21.7147 28.7336 34.3052C17.5667 46.8956 11.5483 63.2327 11.8791 80.0573C12.2099 96.8818 18.8655 112.957 30.5181 125.076C42.1708 137.195 57.9638 144.466 74.7466 145.44C91.5295 146.414 108.068 141.018 121.064 130.329C134.059 119.641 142.556 104.445 144.858 87.7728C146.891 73.0549 143.965 58.1421 136.637 45.357C135.02 42.5345 135.65 38.8721 138.319 37.0072V37.0072Z" stroke="#05CA79" stroke-width="12.6382" mask="url(#path-2-inside-1_354_353)"/>
</svg>
