<svg width="158" height="158" viewBox="0 0 158 158" fill="none" xmlns="http://www.w3.org/2000/svg">
<mask id="path-1-inside-1_351_333" fill="white">
<path d="M138.355 37.4769C141.028 35.6097 144.728 36.253 146.384 39.0577C155.384 54.2944 159.012 72.1902 156.574 89.8477C153.864 109.461 143.868 127.339 128.58 139.914C113.291 152.489 93.8337 158.837 74.0892 157.692C54.3446 156.546 35.7646 147.991 22.0556 133.734C8.34659 119.476 0.516491 100.564 0.12735 80.7706C-0.26179 60.977 6.81864 41.7569 19.9561 26.9446C33.0936 12.1323 51.3223 2.81679 71.0058 0.856396C88.7282 -0.908689 106.457 3.40563 121.324 12.9928C124.059 14.7564 124.56 18.4734 122.596 21.072V21.072C120.63 23.6741 116.94 24.1651 114.178 22.4361C101.697 14.6233 86.9271 11.1294 72.1619 12.5999C55.431 14.2663 39.9366 22.1845 28.7697 34.7749C17.6028 47.3654 11.5845 63.7024 11.9152 80.527C12.246 97.3516 18.9016 113.427 30.5542 125.546C42.2069 137.664 57.9999 144.936 74.7828 145.91C91.5656 146.884 108.104 141.488 121.1 130.799C134.095 120.11 142.592 104.914 144.895 88.2425C146.927 73.5246 144.001 58.6119 136.673 45.8268C135.056 43.0042 135.686 39.3418 138.355 37.4769V37.4769Z"/>
</mask>
<path d="M138.355 37.4769C141.028 35.6097 144.728 36.253 146.384 39.0577C155.384 54.2944 159.012 72.1902 156.574 89.8477C153.864 109.461 143.868 127.339 128.58 139.914C113.291 152.489 93.8337 158.837 74.0892 157.692C54.3446 156.546 35.7646 147.991 22.0556 133.734C8.34659 119.476 0.516491 100.564 0.12735 80.7706C-0.26179 60.977 6.81864 41.7569 19.9561 26.9446C33.0936 12.1323 51.3223 2.81679 71.0058 0.856396C88.7282 -0.908689 106.457 3.40563 121.324 12.9928C124.059 14.7564 124.56 18.4734 122.596 21.072V21.072C120.63 23.6741 116.94 24.1651 114.178 22.4361C101.697 14.6233 86.9271 11.1294 72.1619 12.5999C55.431 14.2663 39.9366 22.1845 28.7697 34.7749C17.6028 47.3654 11.5845 63.7024 11.9152 80.527C12.246 97.3516 18.9016 113.427 30.5542 125.546C42.2069 137.664 57.9999 144.936 74.7828 145.91C91.5656 146.884 108.104 141.488 121.1 130.799C134.095 120.11 142.592 104.914 144.895 88.2425C146.927 73.5246 144.001 58.6119 136.673 45.8268C135.056 43.0042 135.686 39.3418 138.355 37.4769V37.4769Z" stroke="#F75421" stroke-width="12.6382" mask="url(#path-1-inside-1_351_333)"/>
<path d="M42.6865 66.0268H49.5599V95.7266H42.6865V66.0268ZM29.1943 95.7266H22.3209V66.0268H29.1943V95.7266ZM43.1956 83.5496H28.6852V77.737H43.1956V83.5496ZM60.6174 95.7266V71.6273H51.1135V66.0268H76.9948V71.6273H67.4908V95.7266H60.6174ZM78.5716 95.7266V66.0268H84.257L96.9006 86.9863H93.8882L106.32 66.0268H111.963L112.047 95.7266H105.598L105.556 75.9125H106.744L96.8157 92.5869H93.7185L83.5781 75.9125H85.0207V95.7266H78.5716ZM116.972 95.7266V66.0268H123.846V90.126H138.738V95.7266H116.972Z" fill="#F75421"/>
</svg>
