<svg width="158" height="158" viewBox="0 0 158 158" fill="none" xmlns="http://www.w3.org/2000/svg">
<path d="M47.6849 100L65.9923 58.9258H75.3807L93.7467 100H83.7715L68.7501 63.7373H72.5055L57.4254 100H47.6849ZM56.8386 91.1984L59.3617 83.9811H80.4856L83.0674 91.1984H56.8386ZM97.3627 100V68.4315H106.516V100H97.3627ZM101.94 64.0307C100.257 64.0307 98.8883 63.5417 97.8321 62.5638C96.7759 61.5858 96.2478 60.3732 96.2478 58.9258C96.2478 57.4784 96.7759 56.2657 97.8321 55.2878C98.8883 54.3098 100.257 53.8209 101.94 53.8209C103.622 53.8209 104.991 54.2903 106.047 55.2291C107.103 56.1288 107.631 57.3024 107.631 58.7498C107.631 60.2754 107.103 61.5467 106.047 62.5638C105.03 63.5417 103.661 64.0307 101.94 64.0307Z" fill="#FF9A00"/>
<mask id="path-2-inside-1_354_361" fill="white">
<path d="M138.319 37.0072C140.992 35.1399 144.692 35.7833 146.348 38.588C155.348 53.8246 158.976 71.7205 156.537 89.3779C153.828 108.992 143.832 126.869 128.544 139.444C113.255 152.019 93.7975 158.367 74.053 157.222C54.3085 156.076 35.7285 147.521 22.0195 133.264C8.31046 119.006 0.480358 100.094 0.0912177 80.3009C-0.297922 60.5073 6.7825 41.2872 19.92 26.4749C33.0575 11.6626 51.2862 2.34707 70.9697 0.386669C88.6921 -1.37842 106.421 2.9359 121.288 12.5231C124.023 14.2867 124.524 18.0037 122.56 20.6023V20.6023C120.594 23.2044 116.903 23.6954 114.142 21.9664C101.661 14.1536 86.8909 10.6596 72.1258 12.1302C55.3949 13.7965 39.9004 21.7147 28.7336 34.3052C17.5667 46.8956 11.5483 63.2327 11.8791 80.0573C12.2099 96.8818 18.8655 112.957 30.5181 125.076C42.1708 137.195 57.9638 144.466 74.7466 145.44C91.5295 146.414 108.068 141.018 121.064 130.329C134.059 119.641 142.556 104.445 144.858 87.7728C146.891 73.0549 143.965 58.1421 136.637 45.357C135.02 42.5345 135.65 38.8721 138.319 37.0072V37.0072Z"/>
</mask>
<path d="M138.319 37.0072C140.992 35.1399 144.692 35.7833 146.348 38.588C155.348 53.8246 158.976 71.7205 156.537 89.3779C153.828 108.992 143.832 126.869 128.544 139.444C113.255 152.019 93.7975 158.367 74.053 157.222C54.3085 156.076 35.7285 147.521 22.0195 133.264C8.31046 119.006 0.480358 100.094 0.0912177 80.3009C-0.297922 60.5073 6.7825 41.2872 19.92 26.4749C33.0575 11.6626 51.2862 2.34707 70.9697 0.386669C88.6921 -1.37842 106.421 2.9359 121.288 12.5231C124.023 14.2867 124.524 18.0037 122.56 20.6023V20.6023C120.594 23.2044 116.903 23.6954 114.142 21.9664C101.661 14.1536 86.8909 10.6596 72.1258 12.1302C55.3949 13.7965 39.9004 21.7147 28.7336 34.3052C17.5667 46.8956 11.5483 63.2327 11.8791 80.0573C12.2099 96.8818 18.8655 112.957 30.5181 125.076C42.1708 137.195 57.9638 144.466 74.7466 145.44C91.5295 146.414 108.068 141.018 121.064 130.329C134.059 119.641 142.556 104.445 144.858 87.7728C146.891 73.0549 143.965 58.1421 136.637 45.357C135.02 42.5345 135.65 38.8721 138.319 37.0072V37.0072Z" stroke="#FF9A00" stroke-width="12.6382" mask="url(#path-2-inside-1_354_361)"/>
</svg>
