<svg width="290" height="192" viewBox="0 0 290 192" fill="none" xmlns="http://www.w3.org/2000/svg">
<g clip-path="url(#clip0_520_1089)">
<path d="M146.154 70.38C146.643 70.0765 146.41 70.1932 146.945 69.9598C150.719 68.4187 155.517 71.4775 157.66 76.7544C159.803 82.0313 158.336 87.2848 154.562 88.8025C150.16 90.5771 146.456 87.8218 144.779 82.3581" stroke="#C1FF3E" stroke-width="2" stroke-miterlimit="10" stroke-linecap="round"/>
<path d="M151.697 80.6071C150.393 81.1208 149.112 80.9573 148.809 80.2335C148.506 79.5097 149.322 78.4823 150.603 77.9453C150.719 77.8986 150.812 77.8753 150.929 77.8286C149.531 75.6804 147.435 74.5363 145.641 75.1434C143.312 75.9373 142.404 79.393 143.592 82.8486C144.78 86.3043 147.598 88.4758 149.927 87.6819C152.163 86.9114 153.095 83.7125 152.117 80.397C151.977 80.467 151.837 80.5371 151.674 80.6071H151.697Z" fill="#C1FF3E"/>
<path d="M172.008 59.8962C172.497 59.5926 172.264 59.7094 172.8 59.4759C176.573 57.9348 181.372 60.9936 183.515 66.2705C185.657 71.5474 184.19 76.8009 180.417 78.3186C176.014 80.0932 172.311 77.338 170.634 71.8743" stroke="#C1FF3E" stroke-width="2" stroke-miterlimit="10" stroke-linecap="round"/>
<path d="M177.552 70.1232C176.248 70.6369 174.967 70.4735 174.664 69.7496C174.361 69.0258 175.176 67.9985 176.457 67.4614C176.574 67.4147 176.667 67.3914 176.783 67.3447C175.386 65.1966 173.289 64.0524 171.496 64.6595C169.167 65.4534 168.258 68.9091 169.446 72.3647C170.634 75.8204 173.453 77.9919 175.782 77.198C178.018 76.4275 178.95 73.2287 177.971 69.9131C177.832 69.9831 177.692 70.0532 177.529 70.1232H177.552Z" fill="#C1FF3E"/>
<path d="M171.596 147.987C173.087 149.785 175.462 154.548 168.894 159.008C168.242 159.451 167.566 159.871 166.891 160.292C168.941 161.436 171.27 161.716 173.389 160.899C177.699 159.241 179.585 153.661 177.605 148.43C175.602 143.2 170.501 140.305 166.169 141.963C163.42 143.013 161.673 145.652 161.277 148.757C166.611 146.025 170.315 146.446 171.596 147.963V147.987Z" stroke="#C1FF3E" stroke-width="2" stroke-miterlimit="10" stroke-linecap="round"/>
<path d="M129.273 168.674C129.46 168.674 129.623 168.674 129.809 168.674" stroke="#C1FF3E" stroke-width="2" stroke-miterlimit="10" stroke-linecap="round"/>
<path d="M133 168.674C132.767 168.674 132.511 168.674 132.278 168.674C132.511 168.674 132.744 168.674 133 168.674Z" stroke="#C1FF3E" stroke-width="2" stroke-miterlimit="10" stroke-linecap="round"/>
<path d="M126.408 168.581C126.408 168.581 126.525 168.581 126.571 168.581C126.525 168.581 126.455 168.581 126.408 168.581Z" stroke="#C1FF3E" stroke-width="2" stroke-miterlimit="10" stroke-linecap="round"/>
<path d="M132.278 168.674C131.439 168.674 130.624 168.674 129.809 168.674" stroke="#C1FF3E" stroke-width="2" stroke-miterlimit="10" stroke-linecap="round"/>
<path d="M126.571 168.581C127.456 168.628 128.365 168.651 129.273 168.651C128.342 168.651 127.456 168.604 126.571 168.581Z" stroke="#C1FF3E" stroke-width="2" stroke-miterlimit="10" stroke-linecap="round"/>
<path d="M133 168.674C133.792 168.674 134.584 168.627 135.376 168.604C134.561 168.627 133.769 168.651 133 168.674Z" stroke="#C1FF3E" stroke-width="2" stroke-miterlimit="10" stroke-linecap="round"/>
<path d="M278.066 6.3977C278.066 6.3977 260.224 2.52174 258.733 12.0715C257.242 21.6213 268.539 20.4072 278.066 19.5199C287.592 18.6326 296.211 10.2737 278.066 6.3977Z" fill="black" stroke="#C1FF3E" stroke-width="2" stroke-miterlimit="10" stroke-linecap="round"/>
<path d="M209.586 153.964C209.586 153.964 209.54 154.034 209.493 154.058C209.516 154.034 209.54 153.988 209.586 153.964Z" stroke="#C1FF3E" stroke-width="2" stroke-miterlimit="10"/>
<path d="M211.798 151.676C211.798 151.676 211.728 151.746 211.705 151.769C211.728 151.746 211.775 151.699 211.798 151.676Z" stroke="#C1FF3E" stroke-width="2" stroke-miterlimit="10"/>
<path d="M214.407 149.762C214.407 149.762 214.338 149.808 214.291 149.832C214.338 149.832 214.361 149.785 214.407 149.762Z" stroke="#C1FF3E" stroke-width="2" stroke-miterlimit="10"/>
<path d="M212.638 150.999C212.638 150.999 212.544 151.092 212.475 151.116C212.521 151.069 212.568 151.022 212.638 150.999Z" stroke="#C1FF3E" stroke-width="2" stroke-miterlimit="10"/>
<path d="M159.67 163.841C159.484 163.911 159.298 163.981 159.111 164.051" stroke="#C1FF3E" stroke-width="2" stroke-miterlimit="10"/>
<path d="M171.596 147.987C173.086 149.785 175.462 154.548 168.894 159.008C168.242 159.451 167.566 159.872 166.891 160.292C168.94 161.436 171.27 161.716 173.389 160.899C177.698 159.241 179.585 153.661 177.605 148.431C176.906 146.586 175.788 145.045 174.484 143.877C173.226 144.952 171.899 146.049 170.478 147.216C170.92 147.427 171.316 147.66 171.596 147.987Z" stroke="#C1FF3E" stroke-width="2" stroke-miterlimit="10"/>
<path d="M208.934 154.758C208.934 154.758 208.841 154.875 208.794 154.945C208.841 154.875 208.887 154.828 208.934 154.758Z" stroke="#C1FF3E" stroke-width="2" stroke-miterlimit="10"/>
<path d="M163.536 162.137C163.373 162.207 163.233 162.3 163.07 162.37C163.233 162.3 163.396 162.207 163.536 162.137Z" stroke="#C1FF3E" stroke-width="2" stroke-miterlimit="10"/>
<path d="M155.57 165.312C155.57 165.312 155.361 165.382 155.268 165.405C155.361 165.382 155.477 165.335 155.57 165.312Z" stroke="#C1FF3E" stroke-width="2" stroke-miterlimit="10"/>
<path d="M210.285 153.17C210.285 153.17 210.169 153.287 210.122 153.357C210.169 153.287 210.239 153.24 210.285 153.17Z" stroke="#C1FF3E" stroke-width="2" stroke-miterlimit="10"/>
<path d="M147.465 167.273C147.465 167.273 147.395 167.273 147.372 167.273C147.395 167.273 147.442 167.273 147.465 167.273Z" stroke="#C1FF3E" stroke-width="2" stroke-miterlimit="10"/>
<path d="M215.292 149.271C215.292 149.271 215.222 149.318 215.176 149.341C215.222 149.341 215.246 149.294 215.292 149.271Z" stroke="#C1FF3E" stroke-width="2" stroke-miterlimit="10"/>
<path d="M218.042 148.337H217.994" stroke="#C1FF3E" stroke-width="2" stroke-miterlimit="10"/>
<path d="M208.421 155.482C208.421 155.482 208.328 155.622 208.281 155.669C208.328 155.599 208.374 155.529 208.421 155.482Z" stroke="#C1FF3E" stroke-width="2" stroke-miterlimit="10"/>
<path d="M219.858 148.36C219.858 148.36 219.788 148.36 219.741 148.36C219.788 148.36 219.811 148.36 219.858 148.36Z" stroke="#C1FF3E" stroke-width="2" stroke-miterlimit="10"/>
<path d="M210.867 152.564C210.867 152.564 210.937 152.494 210.96 152.47C210.914 152.494 210.89 152.54 210.867 152.564Z" stroke="#C1FF3E" stroke-width="2" stroke-miterlimit="10"/>
<path d="M217.179 148.524C217.179 148.524 217.109 148.524 217.062 148.547C217.109 148.547 217.132 148.547 217.179 148.524Z" stroke="#C1FF3E" stroke-width="2" stroke-miterlimit="10"/>
<path d="M163.071 162.37C161.953 162.907 160.835 163.397 159.693 163.841C160.835 163.397 161.976 162.907 163.071 162.37Z" stroke="#C1FF3E" stroke-width="2" stroke-miterlimit="10" stroke-linecap="round"/>
<path d="M155.268 165.405C152.706 166.199 150.074 166.806 147.465 167.297C150.074 166.83 152.706 166.199 155.268 165.405Z" stroke="#C1FF3E" stroke-width="2" stroke-miterlimit="10" stroke-linecap="round"/>
<path d="M159.134 164.075C157.97 164.518 156.782 164.939 155.594 165.312" stroke="#C1FF3E" stroke-width="2" stroke-miterlimit="10" stroke-linecap="round"/>
<path d="M163.537 162.137C164.678 161.576 165.82 160.969 166.915 160.292C165.82 160.946 164.678 161.553 163.537 162.137Z" stroke="#C1FF3E" stroke-width="2" stroke-miterlimit="10" stroke-linecap="round"/>
<path d="M141.269 168.16C143.295 167.95 145.321 167.67 147.371 167.296C145.345 167.67 143.342 167.927 141.338 168.137C141.338 168.137 141.315 168.137 141.292 168.16H141.269Z" stroke="#C1FF3E" stroke-width="2" stroke-miterlimit="10" stroke-linecap="round"/>
<path d="M208.794 154.945C208.654 155.132 208.537 155.296 208.421 155.482C208.537 155.319 208.654 155.132 208.794 154.945Z" stroke="#C1FF3E" stroke-width="2" stroke-miterlimit="10" stroke-linecap="round"/>
<path d="M209.493 154.058C209.306 154.291 209.12 154.525 208.934 154.758C209.12 154.525 209.283 154.291 209.493 154.058Z" stroke="#C1FF3E" stroke-width="2" stroke-miterlimit="10" stroke-linecap="round"/>
<path d="M210.122 153.357C209.935 153.567 209.749 153.754 209.586 153.964C209.749 153.754 209.935 153.544 210.122 153.357Z" stroke="#C1FF3E" stroke-width="2" stroke-miterlimit="10" stroke-linecap="round"/>
<path d="M215.176 149.318C214.92 149.458 214.663 149.598 214.407 149.762" stroke="#C1FF3E" stroke-width="2" stroke-miterlimit="10" stroke-linecap="round"/>
<path d="M217.062 148.57C216.48 148.734 215.898 148.967 215.315 149.271" stroke="#C1FF3E" stroke-width="2" stroke-miterlimit="10" stroke-linecap="round"/>
<path d="M220.649 148.57C220.393 148.477 220.137 148.407 219.857 148.36C220.114 148.407 220.393 148.477 220.649 148.57Z" stroke="#C1FF3E" stroke-width="2" stroke-miterlimit="10" stroke-linecap="round"/>
<path d="M208.305 155.669C208.165 155.902 208.025 156.113 207.886 156.323C208.002 156.113 208.142 155.879 208.305 155.669Z" stroke="#C1FF3E" stroke-width="2" stroke-miterlimit="10" stroke-linecap="round"/>
<path d="M212.498 151.116C212.265 151.303 212.032 151.489 211.822 151.676C212.055 151.489 212.265 151.279 212.498 151.116Z" stroke="#C1FF3E" stroke-width="2" stroke-miterlimit="10" stroke-linecap="round"/>
<path d="M210.867 152.563C210.681 152.75 210.471 152.96 210.285 153.171C210.471 152.96 210.658 152.774 210.867 152.563Z" stroke="#C1FF3E" stroke-width="2" stroke-miterlimit="10" stroke-linecap="round"/>
<path d="M214.314 149.831C213.755 150.181 213.196 150.578 212.66 150.999" stroke="#C1FF3E" stroke-width="2" stroke-miterlimit="10" stroke-linecap="round"/>
<path d="M217.971 148.36C217.692 148.407 217.436 148.454 217.156 148.547C217.436 148.477 217.692 148.407 217.971 148.36Z" stroke="#C1FF3E" stroke-width="2" stroke-miterlimit="10" stroke-linecap="round"/>
<path d="M210.96 152.47C211.193 152.237 211.449 152.003 211.705 151.77C211.449 152.003 211.216 152.237 210.96 152.47Z" stroke="#C1FF3E" stroke-width="2" stroke-miterlimit="10" stroke-linecap="round"/>
<path d="M218.041 148.337C218.623 148.244 219.182 148.244 219.741 148.337C219.182 148.244 218.623 148.267 218.041 148.337Z" stroke="#C1FF3E" stroke-width="2" stroke-miterlimit="10" stroke-linecap="round"/>
<path d="M103.675 152.026C103.675 152.026 103.721 152.026 103.768 152.026C103.745 152.026 103.721 152.026 103.675 152.026Z" stroke="#C1FF3E" stroke-width="2" stroke-miterlimit="10" stroke-linecap="round"/>
<path d="M101.928 151.886C101.928 151.886 102.021 151.886 102.044 151.886C101.998 151.886 101.951 151.886 101.928 151.886Z" stroke="#C1FF3E" stroke-width="2" stroke-miterlimit="10" stroke-linecap="round"/>
<path d="M104.188 152.12C104.188 152.12 104.234 152.12 104.257 152.12C104.234 152.12 104.211 152.12 104.188 152.12Z" stroke="#C1FF3E" stroke-width="2" stroke-miterlimit="10" stroke-linecap="round"/>
<path d="M158.528 150.369C159.227 149.902 159.879 149.528 160.531 149.178" stroke="#C1FF3E" stroke-width="2" stroke-miterlimit="10" stroke-linecap="round"/>
<path d="M99.8545 152.026C99.8545 152.026 99.8783 152.026 99.902 152.026C99.902 152.026 99.8783 152.026 99.8545 152.026Z" stroke="#C1FF3E" stroke-width="2" stroke-miterlimit="10" stroke-linecap="round"/>
<path d="M98.8066 152.306C98.8066 152.306 98.8998 152.26 98.9697 152.26C98.9231 152.26 98.8765 152.306 98.8066 152.306Z" stroke="#C1FF3E" stroke-width="2" stroke-miterlimit="10" stroke-linecap="round"/>
<path d="M118.512 167.95C118.512 167.95 118.419 167.95 118.372 167.95C118.419 167.95 118.465 167.95 118.512 167.95Z" stroke="#C1FF3E" stroke-width="2" stroke-miterlimit="10" stroke-linecap="round"/>
<path d="M123.636 168.417C123.636 168.417 123.566 168.417 123.543 168.417C123.566 168.417 123.613 168.417 123.636 168.417Z" stroke="#C1FF3E" stroke-width="2" stroke-miterlimit="10" stroke-linecap="round"/>
<path d="M114.18 167.32C115.414 167.53 116.812 167.741 118.372 167.927" stroke="#C1FF3E" stroke-width="2" stroke-miterlimit="10" stroke-linecap="round"/>
<path d="M135.376 168.604C133.35 168.698 131.347 168.721 129.437 168.674C131.486 168.698 133.606 168.674 135.772 168.581C135.632 168.581 135.516 168.581 135.376 168.581V168.604Z" stroke="#C1FF3E" stroke-width="2" stroke-miterlimit="10" stroke-linecap="round"/>
<path d="M129.413 168.674C127.387 168.651 125.454 168.558 123.637 168.417C125.454 168.534 127.387 168.628 129.413 168.674Z" stroke="#C1FF3E" stroke-width="2" stroke-miterlimit="10" stroke-linecap="round"/>
<path d="M123.543 168.417C121.749 168.3 120.049 168.137 118.512 167.95" stroke="#C1FF3E" stroke-width="2" stroke-miterlimit="10" stroke-linecap="round"/>
<path d="M135.771 168.581C136.75 168.978 137.705 169.328 138.683 169.678C139.545 169.188 140.407 168.674 141.269 168.161C139.405 168.347 137.588 168.488 135.771 168.581Z" stroke="#C1FF3E" stroke-width="2" stroke-miterlimit="10" stroke-linecap="round"/>
<path d="M100.973 151.886C101.299 151.886 101.625 151.886 101.928 151.886" stroke="#C1FF3E" stroke-width="2" stroke-miterlimit="10" stroke-linecap="round"/>
<path d="M99.9014 152.003C100.251 151.933 100.6 151.91 100.95 151.886C100.6 151.886 100.251 151.933 99.9014 152.003Z" stroke="#C1FF3E" stroke-width="2" stroke-miterlimit="10" stroke-linecap="round"/>
<path d="M103.768 152.05C103.931 152.073 104.094 152.097 104.187 152.12C104.07 152.12 103.931 152.073 103.768 152.05Z" stroke="#C1FF3E" stroke-width="2" stroke-miterlimit="10" stroke-linecap="round"/>
<path d="M160.532 149.178C160.788 149.038 161.045 148.898 161.301 148.758C161.045 148.875 160.788 149.038 160.532 149.178Z" stroke="#C1FF3E" stroke-width="2" stroke-miterlimit="10" stroke-linecap="round"/>
<path d="M104.257 152.143L104.42 152.166C104.42 152.166 104.35 152.166 104.257 152.143Z" stroke="#C1FF3E" stroke-width="2" stroke-miterlimit="10" stroke-linecap="round"/>
<path d="M135.376 168.604C135.516 168.604 135.632 168.604 135.772 168.604C137.565 168.511 139.406 168.394 141.269 168.184C141.269 168.184 141.292 168.184 141.316 168.161C139.312 168.371 137.309 168.534 135.376 168.604Z" stroke="#C1FF3E" stroke-width="2" stroke-miterlimit="10" stroke-linecap="round"/>
<path d="M102.067 151.886C102.696 151.91 103.279 151.98 103.675 152.05C103.255 151.98 102.696 151.933 102.067 151.886Z" stroke="#C1FF3E" stroke-width="2" stroke-miterlimit="10" stroke-linecap="round"/>
<path d="M98.9463 152.26C99.2258 152.166 99.5286 152.073 99.8547 152.026C99.5519 152.073 99.2491 152.166 98.9463 152.26Z" stroke="#C1FF3E" stroke-width="2" stroke-miterlimit="10" stroke-linecap="round"/>
<path d="M98.8063 152.306C98.5035 152.423 98.224 152.563 97.9678 152.75" stroke="#C1FF3E" stroke-width="2" stroke-miterlimit="10" stroke-linecap="round"/>
<path d="M135.376 168.604C135.516 168.604 135.632 168.604 135.772 168.604" stroke="#C1FF3E" stroke-width="2" stroke-miterlimit="10" stroke-linecap="round"/>
<path d="M34.8227 146.493C36.4532 147.146 38.0138 147.753 39.5278 148.314C42.3927 142.944 44.163 136.079 43.7437 128.607C43.7437 128.607 60.4444 139.231 73.1621 135.052C70.7863 131.269 68.5735 127.463 66.5471 123.704C61.7488 123.634 53.8759 122.233 44.7453 115.485C30.2341 104.768 9.29411 125.035 14.5116 146.703C20.7074 143.13 28.0912 143.714 34.8227 146.493Z" stroke="#C1FF3E" stroke-width="2" stroke-miterlimit="10" stroke-linecap="round"/>
<path d="M82.8045 149.107C77.3773 152.586 64.3568 157.326 39.527 148.314C37.9897 147.753 36.4291 147.169 34.8219 146.492C28.0904 143.737 20.7067 143.13 14.5109 146.702C9.50298 149.598 5.24046 155.201 2.72487 164.658C-2.93521 185.812 8.5247 189.408 11.5061 189.688C14.4876 189.992 32.0268 189.992 33.3545 160.619C33.3545 160.619 70.6924 176.286 91.2131 159.194C88.3481 156.065 85.5297 152.656 82.8045 149.061V149.107Z" stroke="#C1FF3E" stroke-width="2" stroke-miterlimit="10" stroke-linecap="round"/>
<path d="M114.18 167.32C111.804 166.9 110.034 166.479 109.172 166.176C104.118 164.378 98.7605 163.794 96.9902 156.93C96.4312 154.735 96.9902 153.474 97.9918 152.75C80.7787 136.779 70.0175 113.944 70.0175 88.5867C70.0175 74.2503 73.4881 60.7311 79.5907 48.7764C70.134 57.6957 54.5979 74.1802 53.5031 87.3492C52.9441 94.0037 58.2548 108.387 66.5702 123.704C68.62 127.463 70.8328 131.269 73.1853 135.051C76.2133 139.861 79.451 144.625 82.8284 149.108C85.5536 152.703 88.372 156.112 91.237 159.241C101.975 170.962 113.411 178.738 123.218 176.893C119.141 173.414 116.183 169.935 114.227 167.32H114.18Z" stroke="#C1FF3E" stroke-width="2" stroke-miterlimit="10" stroke-linecap="round"/>
<path d="M163.537 147.777C163.537 147.777 171.969 150.485 168.918 159.031" stroke="#C1FF3E" stroke-width="2" stroke-miterlimit="10" stroke-linecap="round"/>
<path d="M158.528 150.368C158.528 150.368 166.424 156.976 163.07 162.37" stroke="#C1FF3E" stroke-width="2" stroke-miterlimit="10" stroke-linecap="round"/>
<path d="M152.146 152.75C152.146 152.75 160.602 156.789 156.735 164.915" stroke="#C1FF3E" stroke-width="2" stroke-miterlimit="10" stroke-linecap="round"/>
<path d="M146.976 153.801C146.976 153.801 154.755 163.304 150.19 166.736" stroke="#C1FF3E" stroke-width="2" stroke-miterlimit="10" stroke-linecap="round"/>
<path d="M140.034 154.688C140.034 154.688 147.325 160.665 144.297 167.787" stroke="#C1FF3E" stroke-width="2" stroke-miterlimit="10" stroke-linecap="round"/>
<path d="M134.188 155.225C134.188 155.225 140.198 164.051 135.772 168.604" stroke="#C1FF3E" stroke-width="2" stroke-miterlimit="10" stroke-linecap="round"/>
<path d="M127.922 155.272C127.922 155.272 133.209 165.195 127.922 168.161" stroke="#C1FF3E" stroke-width="2" stroke-miterlimit="10" stroke-linecap="round"/>
<path d="M121.028 155.062C121.028 155.062 126.222 165.849 119.863 168.09" stroke="#C1FF3E" stroke-width="2" stroke-miterlimit="10" stroke-linecap="round"/>
<path d="M114.482 154.408C114.482 154.408 118.396 163.281 114.18 167.32" stroke="#C1FF3E" stroke-width="2" stroke-miterlimit="10" stroke-linecap="round"/>
<path d="M108.822 153.404C108.822 153.404 112.596 162.253 106.796 165.405" stroke="#C1FF3E" stroke-width="2" stroke-miterlimit="10" stroke-linecap="round"/>
<path d="M103.674 152.026C103.674 152.026 106.633 161.296 100.949 162.37" stroke="#C1FF3E" stroke-width="2" stroke-miterlimit="10" stroke-linecap="round"/>
<path d="M62.0516 153.404C62.0516 153.404 56.8341 157.863 59.2099 166.339" stroke="#C1FF3E" stroke-width="2" stroke-miterlimit="10" stroke-linecap="round"/>
<path d="M49.6828 151.863C49.6828 151.863 45.8162 154.781 48.4949 164.051" stroke="#C1FF3E" stroke-width="2" stroke-miterlimit="10" stroke-linecap="round"/>
<path d="M39.5275 148.314C39.5275 148.314 34.1935 153.03 37.338 162.137" stroke="#C1FF3E" stroke-width="2" stroke-miterlimit="10" stroke-linecap="round"/>
<path d="M34.8223 146.492C34.8223 146.492 20.7537 156.672 31.6546 172.293" stroke="#C1FF3E" stroke-width="2" stroke-miterlimit="10" stroke-linecap="round"/>
<path d="M63.169 123.47C63.169 123.47 61.1891 129.891 63.169 135.822" stroke="#C1FF3E" stroke-width="2" stroke-miterlimit="10" stroke-linecap="round"/>
<path d="M56.0884 121.719C56.0884 121.719 53.0137 126.482 54.225 133.604" stroke="#C1FF3E" stroke-width="2" stroke-miterlimit="10" stroke-linecap="round"/>
<path d="M49.6833 118.73C49.6833 118.73 44.2561 123.494 46.1661 129.635" stroke="#C1FF3E" stroke-width="2" stroke-miterlimit="10" stroke-linecap="round"/>
<path d="M43.4171 114.621C43.4171 114.621 31.0022 129.214 43.4171 138.157" stroke="#C1FF3E" stroke-width="2" stroke-miterlimit="10" stroke-linecap="round"/>
<path d="M225.122 156.346C224.377 151.629 222.7 149.341 220.65 148.571C220.394 148.477 220.137 148.407 219.858 148.36C219.811 148.36 219.788 148.36 219.741 148.36C219.182 148.267 218.623 148.29 218.041 148.36H217.995C217.715 148.407 217.459 148.454 217.179 148.547C217.133 148.547 217.109 148.547 217.063 148.571C216.481 148.734 215.898 148.991 215.316 149.271C215.269 149.271 215.246 149.318 215.199 149.341C214.943 149.481 214.687 149.621 214.431 149.785C214.384 149.785 214.361 149.831 214.314 149.855C213.755 150.205 213.196 150.602 212.661 151.022C212.614 151.069 212.567 151.116 212.497 151.139C212.265 151.326 212.032 151.513 211.822 151.699C211.799 151.723 211.752 151.769 211.729 151.793C211.473 152.026 211.24 152.26 210.983 152.493C210.937 152.517 210.914 152.563 210.89 152.587C210.704 152.773 210.494 152.984 210.308 153.194C210.261 153.264 210.192 153.31 210.145 153.38C209.959 153.591 209.772 153.777 209.609 153.988C209.586 154.011 209.563 154.058 209.516 154.081C209.33 154.314 209.143 154.548 208.957 154.781C208.91 154.851 208.864 154.898 208.817 154.968C208.678 155.155 208.561 155.318 208.445 155.505C208.398 155.575 208.351 155.645 208.305 155.692C208.165 155.926 208.025 156.136 207.886 156.346C204.997 161.366 173.296 182.007 138.684 169.678C137.705 169.328 136.75 168.978 135.772 168.581C133.582 168.674 131.463 168.698 129.436 168.674C127.41 168.651 125.477 168.557 123.66 168.417C123.637 168.417 123.59 168.417 123.567 168.417C121.773 168.301 120.073 168.137 118.536 167.95C118.489 167.95 118.442 167.95 118.396 167.95C116.835 167.764 115.438 167.553 114.203 167.343C116.16 169.958 119.141 173.437 123.194 176.916C137.752 189.338 166.332 201.76 212.963 174.862C212.963 174.862 213.499 174.722 214.338 174.418C217.901 173.087 227.079 168.441 225.169 156.393L225.122 156.346Z" fill="black" stroke="#C1FF3E" stroke-width="2" stroke-miterlimit="10" stroke-linecap="round"/>
<path d="M214.314 22.5319C199.011 9.22293 179.05 1.16748 157.225 1.16748C123.357 1.16748 94.032 20.5239 79.5674 48.7997C73.4647 60.7311 69.9941 74.2736 69.9941 88.61C69.9941 113.967 80.7786 136.803 97.9684 152.773C98.2247 152.587 98.5042 152.447 98.807 152.33C98.8535 152.33 98.9001 152.283 98.97 152.283C99.2495 152.19 99.5523 152.096 99.8784 152.05C99.8784 152.05 99.9017 152.05 99.925 152.05C100.274 151.98 100.624 151.956 100.973 151.933C101.299 151.933 101.625 151.933 101.928 151.933C101.975 151.933 102.021 151.933 102.045 151.933C102.674 151.956 103.256 152.026 103.652 152.096C103.675 152.096 103.698 152.096 103.745 152.096C103.908 152.12 104.048 152.143 104.164 152.166C104.188 152.166 104.211 152.166 104.234 152.166C104.327 152.166 104.397 152.19 104.397 152.19C121.051 157.864 151.681 154.875 158.506 150.392C159.204 149.925 159.857 149.551 160.509 149.201C160.765 149.061 161.021 148.921 161.277 148.781C161.697 145.675 163.444 143.037 166.169 141.986C168.964 140.912 172.085 141.776 174.484 143.901C175.789 145.068 176.907 146.609 177.605 148.454C179.609 153.684 177.722 159.265 173.39 160.922C171.247 161.74 168.941 161.436 166.891 160.315C165.796 160.969 164.655 161.576 163.514 162.16C163.35 162.23 163.211 162.323 163.048 162.393C161.93 162.93 160.812 163.421 159.67 163.864C159.484 163.934 159.298 164.004 159.111 164.074C157.947 164.518 156.759 164.938 155.571 165.312C155.478 165.335 155.361 165.382 155.268 165.405C152.706 166.199 150.074 166.806 147.465 167.297C147.442 167.297 147.395 167.297 147.372 167.297C145.322 167.67 143.296 167.95 141.269 168.161C140.407 168.674 139.546 169.188 138.684 169.678C173.296 182.007 204.997 161.343 207.886 156.346C208.002 156.136 208.142 155.902 208.305 155.692C208.352 155.622 208.398 155.552 208.445 155.505C208.561 155.342 208.678 155.155 208.817 154.968C208.864 154.898 208.911 154.852 208.957 154.781C209.144 154.548 209.307 154.314 209.516 154.081C209.539 154.058 209.563 154.011 209.609 153.988C209.772 153.777 209.959 153.567 210.145 153.381C210.192 153.31 210.262 153.264 210.308 153.194C210.494 152.984 210.681 152.797 210.89 152.587C210.937 152.563 210.96 152.517 210.984 152.493C211.217 152.26 211.473 152.026 211.729 151.793C211.752 151.769 211.799 151.723 211.822 151.699C212.055 151.513 212.265 151.302 212.498 151.139C212.544 151.092 212.591 151.046 212.661 151.022C213.196 150.602 213.755 150.205 214.314 149.855" stroke="#C1FF3E" stroke-width="2" stroke-miterlimit="10" stroke-linecap="round"/>
</g>
<defs>
<clipPath id="clip0_520_1089">
<rect width="289.829" height="192" fill="white"/>
</clipPath>
</defs>
</svg>
