<svg width="158" height="158" viewBox="0 0 158 158" fill="none" xmlns="http://www.w3.org/2000/svg">
<path d="M44.7065 100.704C41.5379 100.704 38.5845 100.196 35.8462 99.1785C33.147 98.1223 30.7999 96.6358 28.8049 94.719C26.8099 92.8022 25.2451 90.5529 24.1107 87.9711C23.0154 85.3893 22.4677 82.5532 22.4677 79.4629C22.4677 76.3725 23.0154 73.5365 24.1107 70.9547C25.2451 68.3729 26.8099 66.1236 28.8049 64.2068C30.839 62.29 33.2057 60.823 35.9049 59.8059C38.604 58.7498 41.5575 58.2217 44.7652 58.2217C48.3249 58.2217 51.5326 58.8476 54.3883 60.0993C57.283 61.312 59.7083 63.1114 61.6643 65.4977L55.5618 71.1307C54.1535 69.5268 52.5888 68.3337 50.8676 67.5514C49.1464 66.7299 47.2687 66.3191 45.2346 66.3191C43.3178 66.3191 41.5575 66.6321 39.9536 67.258C38.3498 67.8839 36.9611 68.7836 35.7875 69.9571C34.614 71.1307 33.6947 72.5194 33.0297 74.1232C32.4038 75.7271 32.0908 77.507 32.0908 79.4629C32.0908 81.4188 32.4038 83.1987 33.0297 84.8025C33.6947 86.4064 34.614 87.7951 35.7875 88.9686C36.9611 90.1422 38.3498 91.0419 39.9536 91.6678C41.5575 92.2937 43.3178 92.6066 45.2346 92.6066C47.2687 92.6066 49.1464 92.2155 50.8676 91.4331C52.5888 90.6116 54.1535 89.3794 55.5618 87.7364L61.6643 93.3694C59.7083 95.7557 57.283 97.5747 54.3883 98.8265C51.5326 100.078 48.3054 100.704 44.7065 100.704ZM81.3501 100.704C78.0641 100.704 74.9151 100.274 71.903 99.4132C68.8909 98.5135 66.4656 97.3595 64.627 95.9513L67.8543 88.7926C69.6146 90.0444 71.6879 91.081 74.0741 91.9025C76.4994 92.6849 78.9443 93.0761 81.4088 93.0761C83.2864 93.0761 84.7925 92.9 85.9269 92.548C87.1005 92.1568 87.9611 91.6287 88.5087 90.9637C89.0564 90.2987 89.3302 89.5359 89.3302 88.6753C89.3302 87.5799 88.8999 86.7193 88.0393 86.0934C87.1787 85.4284 86.0443 84.9003 84.636 84.5092C83.2278 84.0789 81.663 83.6877 79.9418 83.3356C78.2597 82.9444 76.5581 82.475 74.8369 81.9273C73.1548 81.3797 71.6096 80.6756 70.2014 79.815C68.7931 78.9544 67.6391 77.8199 66.7394 76.4117C65.8788 75.0034 65.4485 73.204 65.4485 71.0133C65.4485 68.6662 66.0744 66.5343 67.3262 64.6175C68.6171 62.6616 70.5339 61.1164 73.0766 59.982C75.6584 58.8084 78.8856 58.2217 82.7583 58.2217C85.3401 58.2217 87.8828 58.5346 90.3864 59.1605C92.89 59.7473 95.1002 60.647 97.017 61.8597L94.0831 69.077C92.1663 67.9817 90.2495 67.1798 88.3327 66.6712C86.4159 66.1236 84.5382 65.8497 82.6997 65.8497C80.8611 65.8497 79.355 66.0649 78.1815 66.4952C77.0079 66.9255 76.1669 67.4927 75.6584 68.1968C75.1498 68.8618 74.8956 69.6442 74.8956 70.5439C74.8956 71.6001 75.3259 72.4607 76.1865 73.1257C77.0471 73.7516 78.1815 74.2602 79.5898 74.6513C80.998 75.0425 82.5432 75.4337 84.2253 75.8249C85.9465 76.2161 87.6481 76.6659 89.3302 77.1745C91.0514 77.683 92.6161 78.3676 94.0244 79.2282C95.4327 80.0888 96.5671 81.2232 97.4277 82.6315C98.3274 84.0397 98.7773 85.8196 98.7773 87.9711C98.7773 90.2791 98.1318 92.3915 96.8409 94.3083C95.55 96.2251 93.6137 97.7703 91.0319 98.9438C88.4892 100.117 85.2619 100.704 81.3501 100.704ZM118.768 100.704C115.482 100.704 112.333 100.274 109.321 99.4132C106.309 98.5135 103.884 97.3595 102.045 95.9513L105.273 88.7926C107.033 90.0444 109.106 91.081 111.492 91.9025C113.918 92.6849 116.363 93.0761 118.827 93.0761C120.705 93.0761 122.211 92.9 123.345 92.548C124.519 92.1568 125.379 91.6287 125.927 90.9637C126.475 90.2987 126.749 89.5359 126.749 88.6753C126.749 87.5799 126.318 86.7193 125.458 86.0934C124.597 85.4284 123.463 84.9003 122.054 84.5092C120.646 84.0789 119.081 83.6877 117.36 83.3356C115.678 82.9444 113.976 82.475 112.255 81.9273C110.573 81.3797 109.028 80.6756 107.62 79.815C106.211 78.9544 105.057 77.8199 104.158 76.4117C103.297 75.0034 102.867 73.204 102.867 71.0133C102.867 68.6662 103.493 66.5343 104.744 64.6175C106.035 62.6616 107.952 61.1164 110.495 59.982C113.077 58.8084 116.304 58.2217 120.177 58.2217C122.758 58.2217 125.301 58.5346 127.805 59.1605C130.308 59.7473 132.518 60.647 134.435 61.8597L131.501 69.077C129.585 67.9817 127.668 67.1798 125.751 66.6712C123.834 66.1236 121.957 65.8497 120.118 65.8497C118.279 65.8497 116.773 66.0649 115.6 66.4952C114.426 66.9255 113.585 67.4927 113.077 68.1968C112.568 68.8618 112.314 69.6442 112.314 70.5439C112.314 71.6001 112.744 72.4607 113.605 73.1257C114.465 73.7516 115.6 74.2602 117.008 74.6513C118.416 75.0425 119.962 75.4337 121.644 75.8249C123.365 76.2161 125.066 76.6659 126.749 77.1745C128.47 77.683 130.034 78.3676 131.443 79.2282C132.851 80.0888 133.985 81.2232 134.846 82.6315C135.746 84.0397 136.196 85.8196 136.196 87.9711C136.196 90.2791 135.55 92.3915 134.259 94.3083C132.968 96.2251 131.032 97.7703 128.45 98.9438C125.907 100.117 122.68 100.704 118.768 100.704Z" fill="#60B4E7"/>
<mask id="path-2-inside-1_353_344" fill="white">
<path d="M138.319 37.0072C140.992 35.1399 144.692 35.7833 146.348 38.588C155.348 53.8246 158.976 71.7205 156.537 89.3779C153.828 108.992 143.832 126.869 128.544 139.444C113.255 152.019 93.7975 158.367 74.053 157.222C54.3085 156.076 35.7285 147.521 22.0195 133.264C8.31046 119.006 0.480358 100.094 0.0912177 80.3009C-0.297922 60.5073 6.7825 41.2872 19.92 26.4749C33.0575 11.6626 51.2862 2.34707 70.9697 0.386669C88.6921 -1.37842 106.421 2.9359 121.288 12.5231C124.023 14.2867 124.524 18.0037 122.56 20.6023V20.6023C120.594 23.2044 116.903 23.6954 114.142 21.9664C101.661 14.1536 86.8909 10.6596 72.1258 12.1302C55.3949 13.7965 39.9004 21.7147 28.7336 34.3052C17.5667 46.8956 11.5483 63.2327 11.8791 80.0573C12.2099 96.8818 18.8655 112.957 30.5181 125.076C42.1708 137.195 57.9638 144.466 74.7466 145.44C91.5295 146.414 108.068 141.018 121.064 130.329C134.059 119.641 142.556 104.445 144.858 87.7728C146.891 73.0549 143.965 58.1421 136.637 45.357C135.02 42.5345 135.65 38.8721 138.319 37.0072V37.0072Z"/>
</mask>
<path d="M138.319 37.0072C140.992 35.1399 144.692 35.7833 146.348 38.588C155.348 53.8246 158.976 71.7205 156.537 89.3779C153.828 108.992 143.832 126.869 128.544 139.444C113.255 152.019 93.7975 158.367 74.053 157.222C54.3085 156.076 35.7285 147.521 22.0195 133.264C8.31046 119.006 0.480358 100.094 0.0912177 80.3009C-0.297922 60.5073 6.7825 41.2872 19.92 26.4749C33.0575 11.6626 51.2862 2.34707 70.9697 0.386669C88.6921 -1.37842 106.421 2.9359 121.288 12.5231C124.023 14.2867 124.524 18.0037 122.56 20.6023V20.6023C120.594 23.2044 116.903 23.6954 114.142 21.9664C101.661 14.1536 86.8909 10.6596 72.1258 12.1302C55.3949 13.7965 39.9004 21.7147 28.7336 34.3052C17.5667 46.8956 11.5483 63.2327 11.8791 80.0573C12.2099 96.8818 18.8655 112.957 30.5181 125.076C42.1708 137.195 57.9638 144.466 74.7466 145.44C91.5295 146.414 108.068 141.018 121.064 130.329C134.059 119.641 142.556 104.445 144.858 87.7728C146.891 73.0549 143.965 58.1421 136.637 45.357C135.02 42.5345 135.65 38.8721 138.319 37.0072V37.0072Z" stroke="#60B4E7" stroke-width="12.6382" mask="url(#path-2-inside-1_353_344)"/>
</svg>
