<svg width="158" height="158" viewBox="0 0 158 158" fill="none" xmlns="http://www.w3.org/2000/svg">
<path d="M47.2957 100V58.9258H65.075C68.7521 58.9258 71.9207 59.5321 74.5807 60.7448C77.2408 61.9183 79.2945 63.62 80.7419 65.8497C82.1892 68.0795 82.9129 70.7395 82.9129 73.8299C82.9129 76.8811 82.1892 79.5216 80.7419 81.7513C79.2945 83.9811 77.2408 85.7023 74.5807 86.9149C71.9207 88.0885 68.7521 88.6753 65.075 88.6753H52.5767L56.8015 84.3918V100H47.2957ZM56.8015 85.448L52.5767 80.9298H64.5469C67.4808 80.9298 69.6714 80.3039 71.1188 79.0522C72.5661 77.8004 73.2898 76.0596 73.2898 73.8299C73.2898 71.561 72.5661 69.8007 71.1188 68.5489C69.6714 67.2971 67.4808 66.6712 64.5469 66.6712H52.5767L56.8015 62.153V85.448ZM100.248 100.469C97.5484 100.469 94.947 100.156 92.4434 99.5306C89.979 98.8656 88.0231 98.0441 86.5757 97.0661L89.6269 90.4943C91.0743 91.394 92.7759 92.1372 94.7318 92.724C96.7269 93.2717 98.6828 93.5455 100.6 93.5455C102.712 93.5455 104.198 93.2912 105.059 92.7827C105.959 92.2741 106.409 91.57 106.409 90.6703C106.409 89.927 106.057 89.3794 105.352 89.0273C104.687 88.6361 103.788 88.3427 102.653 88.1472C101.519 87.9516 100.267 87.756 98.8979 87.5604C97.5679 87.3648 96.2183 87.1105 94.8492 86.7976C93.4801 86.4455 92.2283 85.937 91.0938 85.272C89.9594 84.607 89.0401 83.7072 88.336 82.5728C87.671 81.4384 87.3385 79.9714 87.3385 78.172C87.3385 76.177 87.9057 74.4166 89.0401 72.891C90.2137 71.3654 91.8958 70.1723 94.0864 69.3117C96.277 68.412 98.8979 67.9621 101.949 67.9621C104.101 67.9621 106.291 68.1968 108.521 68.6662C110.751 69.1357 112.609 69.8202 114.095 70.72L111.044 77.2332C109.519 76.3334 107.973 75.7271 106.409 75.4142C104.883 75.0621 103.397 74.8861 101.949 74.8861C99.915 74.8861 98.4285 75.1599 97.4897 75.7075C96.5508 76.2552 96.0814 76.9593 96.0814 77.8199C96.0814 78.6023 96.4139 79.1891 97.0789 79.5802C97.7831 79.9714 98.7023 80.2844 99.8368 80.5191C100.971 80.7538 102.203 80.9689 103.533 81.1645C104.903 81.321 106.272 81.5753 107.641 81.9273C109.01 82.2794 110.242 82.7879 111.338 83.453C112.472 84.0789 113.391 84.959 114.095 86.0934C114.8 87.1888 115.152 88.6361 115.152 90.4356C115.152 92.3915 114.565 94.1323 113.391 95.6579C112.218 97.1444 110.516 98.3179 108.286 99.1785C106.096 100.039 103.416 100.469 100.248 100.469Z" fill="#31A8FF"/>
<mask id="path-2-inside-1_354_357" fill="white">
<path d="M138.319 37.0072C140.992 35.1399 144.692 35.7833 146.348 38.588C155.348 53.8246 158.976 71.7205 156.537 89.3779C153.828 108.992 143.832 126.869 128.544 139.444C113.255 152.019 93.7975 158.367 74.053 157.222C54.3085 156.076 35.7285 147.521 22.0195 133.264C8.31046 119.006 0.480358 100.094 0.0912177 80.3009C-0.297922 60.5073 6.7825 41.2872 19.92 26.4749C33.0575 11.6626 51.2862 2.34707 70.9697 0.386669C88.6921 -1.37842 106.421 2.9359 121.288 12.5231C124.023 14.2867 124.524 18.0037 122.56 20.6023V20.6023C120.594 23.2044 116.903 23.6954 114.142 21.9664C101.661 14.1536 86.8909 10.6596 72.1258 12.1302C55.3949 13.7965 39.9004 21.7147 28.7336 34.3052C17.5667 46.8956 11.5483 63.2327 11.8791 80.0573C12.2099 96.8818 18.8655 112.957 30.5181 125.076C42.1708 137.195 57.9638 144.466 74.7466 145.44C91.5295 146.414 108.068 141.018 121.064 130.329C134.059 119.641 142.556 104.445 144.858 87.7728C146.891 73.0549 143.965 58.1421 136.637 45.357C135.02 42.5345 135.65 38.8721 138.319 37.0072V37.0072Z"/>
</mask>
<path d="M138.319 37.0072C140.992 35.1399 144.692 35.7833 146.348 38.588C155.348 53.8246 158.976 71.7205 156.537 89.3779C153.828 108.992 143.832 126.869 128.544 139.444C113.255 152.019 93.7975 158.367 74.053 157.222C54.3085 156.076 35.7285 147.521 22.0195 133.264C8.31046 119.006 0.480358 100.094 0.0912177 80.3009C-0.297922 60.5073 6.7825 41.2872 19.92 26.4749C33.0575 11.6626 51.2862 2.34707 70.9697 0.386669C88.6921 -1.37842 106.421 2.9359 121.288 12.5231C124.023 14.2867 124.524 18.0037 122.56 20.6023V20.6023C120.594 23.2044 116.903 23.6954 114.142 21.9664C101.661 14.1536 86.8909 10.6596 72.1258 12.1302C55.3949 13.7965 39.9004 21.7147 28.7336 34.3052C17.5667 46.8956 11.5483 63.2327 11.8791 80.0573C12.2099 96.8818 18.8655 112.957 30.5181 125.076C42.1708 137.195 57.9638 144.466 74.7466 145.44C91.5295 146.414 108.068 141.018 121.064 130.329C134.059 119.641 142.556 104.445 144.858 87.7728C146.891 73.0549 143.965 58.1421 136.637 45.357C135.02 42.5345 135.65 38.8721 138.319 37.0072V37.0072Z" stroke="#31A8FF" stroke-width="12.6382" mask="url(#path-2-inside-1_354_357)"/>
</svg>
