<svg width="247" height="226" viewBox="0 0 247 226" fill="none" xmlns="http://www.w3.org/2000/svg">
<g clip-path="url(#clip0_520_1030)">
<path d="M63.1335 59.2292C63.6486 59.0503 63.4022 59.1174 63.9621 59.0279C67.7693 58.424 71.5318 62.2264 72.3828 67.5275C73.2338 72.8286 70.7703 77.302 66.9855 77.906C62.5736 78.5994 59.7294 75.289 59.3486 69.9432" stroke="#C1FF3E" stroke-width="2" stroke-miterlimit="10" stroke-linecap="round"/>
<path d="M66.0445 69.7417C64.7456 69.943 63.6034 69.518 63.469 68.7799C63.3346 68.0418 64.32 67.2813 65.619 67.08C65.731 67.08 65.8429 67.0576 65.9549 67.0576C65.1039 64.7985 63.4466 63.2999 61.655 63.4788C59.3482 63.7249 57.7806 66.6774 58.1389 70.0996C58.4972 73.5218 60.6472 76.094 62.9315 75.8703C65.1487 75.6467 66.6716 72.8955 66.4924 69.6522C66.358 69.6969 66.2013 69.7193 66.0445 69.7417Z" fill="#C1FF3E"/>
<path d="M89.112 55.091C89.6271 54.9121 89.3807 54.9792 89.9406 54.8897C93.7479 54.2858 97.5103 58.0882 98.3613 63.3893C99.2124 68.6904 96.7489 73.1639 92.964 73.7678C88.5521 74.4612 85.7079 71.1508 85.3271 65.805" stroke="#C1FF3E" stroke-width="2" stroke-miterlimit="10" stroke-linecap="round"/>
<path d="M92.0455 65.626C90.7465 65.8273 89.6044 65.4023 89.47 64.6642C89.3356 63.926 90.321 63.1655 91.62 62.9642C91.7319 62.9642 91.8439 62.9419 91.9559 62.9419C91.1049 60.6828 89.4476 59.1842 87.656 59.3631C85.3492 59.6091 83.7815 62.5616 84.1399 65.9838C84.4982 69.406 86.6482 71.9783 88.9325 71.7546C91.1497 71.5309 92.6726 68.7798 92.4934 65.5365C92.359 65.5812 92.2022 65.6036 92.0455 65.626Z" fill="#C1FF3E"/>
<path d="M181.627 91.4826C181.627 91.4826 170.183 86.7184 171.706 77.9727C173.229 69.2271 185.233 75.4899 188.861 77.9727C192.489 80.4555 217.46 95.2851 234.413 116.422C234.413 116.422 246.619 119.844 245.857 129.753C245.096 139.662 241.849 140.982 234.996 138.499C228.143 136.016 226.037 125.548 226.037 125.548C226.037 125.548 202.791 100.989 181.627 91.4826Z" stroke="#C1FF3E" stroke-width="2" stroke-miterlimit="10" stroke-linecap="round"/>
<path d="M19.8648 127.337C14.2211 144.493 10.3243 173.906 10.3243 173.906C4.61343 178.044 -5.10622 190.033 6.741 190.749C18.6106 191.465 21.1861 178.894 21.746 175.472C22.1491 173.012 26.9417 148.43 29.5844 134.853C29.562 134.853 29.5172 134.83 29.4948 134.808C29.4948 134.808 21.2757 132.437 19.8648 127.337Z" stroke="#C1FF3E" stroke-width="2" stroke-miterlimit="10" stroke-linecap="round"/>
<path d="M23.6051 118.547C23.6051 118.547 23.5156 118.703 23.4932 118.771C23.5827 118.793 23.6947 118.815 23.7843 118.86C23.7395 118.771 23.6723 118.659 23.6275 118.569L23.6051 118.547Z" stroke="#C1FF3E" stroke-width="2" stroke-miterlimit="10" stroke-linecap="round"/>
<path d="M167.921 46.8596C161.539 15.1874 152.043 2.68406 146.534 1.43149C141.674 0.335487 128.326 2.23671 117.263 4.18268C139.636 10.535 158.045 26.2593 167.921 46.8373V46.8596Z" stroke="#C1FF3E" stroke-width="2" stroke-miterlimit="10" stroke-linecap="round"/>
<path d="M67.4776 127.896C66.3578 122.282 61.5427 118.502 56.7501 119.464C54.0179 120.001 51.9127 121.991 50.7705 124.631C52.1142 124.631 53.458 124.586 54.8017 124.452C58.1834 124.139 61.5651 123.49 62.8865 126.219C64.2078 128.948 64.499 132.84 59.2136 135.971C57.9371 136.732 55.9215 137.224 53.5028 137.492C55.5407 139.371 58.161 140.333 60.8261 139.796C65.6187 138.834 68.5973 133.511 67.4776 127.896Z" fill="#C1FF3E"/>
<path d="M193.139 158.495C177.417 143.934 167.922 163.349 167.922 163.349C167.922 163.349 150.274 180.997 138.696 149.347C135.224 151.584 131.574 153.552 127.767 155.23C132.38 167.062 144.899 190.615 167.922 176.188C167.922 176.188 175.715 201.038 193.139 196.744C210.585 192.471 208.861 173.034 193.139 158.473V158.495Z" stroke="#C1FF3E" stroke-width="2" stroke-miterlimit="10" stroke-linecap="round"/>
<path d="M125.683 187.327C125.683 187.327 109.088 204.595 95.9422 162.074C95.6958 162.074 95.4719 162.074 95.2255 162.074C90.5449 162.074 85.9538 161.649 81.4971 160.889C85.7746 176.479 99.2567 214.951 125.706 201.866C125.706 201.866 132.716 231.279 152.513 223.562C169.915 216.785 159.209 189.72 151.886 180.55C147.922 180.08 144.473 178.358 141.472 175.942C135.134 175.942 128.057 179.275 125.706 187.305L125.683 187.327Z" stroke="#C1FF3E" stroke-width="2" stroke-miterlimit="10" stroke-linecap="round"/>
<path d="M193.139 158.495C177.417 143.934 167.922 163.349 167.922 163.349C167.922 163.349 150.274 180.997 138.696 149.347C135.224 151.584 131.574 153.552 127.767 155.23C130.118 161.291 134.575 170.417 141.428 175.964C144.429 178.38 147.9 180.102 151.842 180.572C156.5 181.131 161.83 179.99 167.899 176.188C167.899 176.188 175.693 201.038 193.117 196.744C210.563 192.471 208.838 173.034 193.117 158.473L193.139 158.495Z" stroke="#C1FF3E" stroke-width="2" stroke-miterlimit="10" stroke-linecap="round"/>
<path d="M133.32 152.523C133.32 152.523 133.343 152.523 133.365 152.501C133.365 152.501 133.343 152.501 133.32 152.523Z" stroke="#C1FF3E" stroke-width="2" stroke-miterlimit="10" stroke-linecap="round"/>
<path d="M174.573 127.941C174.573 117.54 174.327 107.967 173.901 99.0649C169.243 120.113 156.321 138.074 138.718 149.369C139.098 150.443 139.502 151.449 139.905 152.389C159.792 147.938 174.573 137.85 174.573 127.941Z" stroke="#C1FF3E" stroke-width="2" stroke-miterlimit="10" stroke-linecap="round"/>
<path d="M138.695 149.347C136.971 150.466 135.179 151.494 133.365 152.479" stroke="#C1FF3E" stroke-width="2" stroke-miterlimit="10" stroke-linecap="round"/>
<path d="M62.8869 126.219C61.5656 123.49 58.1839 124.161 54.8021 124.452C43.6492 125.458 31.8692 122.036 25.3969 119.375C24.8146 119.128 24.2995 118.972 23.8068 118.838C23.8068 118.838 23.8068 118.838 23.7844 118.838C23.6948 118.815 23.6052 118.793 23.5156 118.771C18.9917 117.652 19.1933 121.343 19.7084 126.443C19.7308 126.756 19.798 127.047 19.8876 127.36C21.2761 132.459 29.5176 134.83 29.5176 134.83C29.54 134.83 29.5848 134.853 29.6072 134.875C31.2421 135.658 33.728 136.307 36.5946 136.799C44.5226 138.185 55.3396 138.275 59.2365 135.971C64.5218 132.84 64.2307 128.948 62.9093 126.219H62.8869Z" stroke="#C1FF3E" stroke-width="2" stroke-miterlimit="10" stroke-linecap="round"/>
<path d="M98.1592 195.759C98.1592 195.759 102.011 194.082 106.087 183.905" stroke="#C1FF3E" stroke-width="2" stroke-miterlimit="10" stroke-linecap="round"/>
<path d="M108.686 203.364C108.686 203.364 112.426 196.99 113.097 189.832" stroke="#C1FF3E" stroke-width="2" stroke-miterlimit="10" stroke-linecap="round"/>
<path d="M118.719 203.364C118.719 203.364 121.877 197.549 121.921 189.832" stroke="#C1FF3E" stroke-width="2" stroke-miterlimit="10" stroke-linecap="round"/>
<path d="M150.497 166.547C150.497 166.547 151.752 173.929 148.28 179.766" stroke="#C1FF3E" stroke-width="2" stroke-miterlimit="10" stroke-linecap="round"/>
<path d="M160.486 167.666C160.486 167.666 161.718 172.967 159.411 179.99" stroke="#C1FF3E" stroke-width="2" stroke-miterlimit="10" stroke-linecap="round"/>
<path d="M165.413 165.317C165.413 165.317 169.847 175.45 166.69 176.926" stroke="#C1FF3E" stroke-width="2" stroke-miterlimit="10" stroke-linecap="round"/>
<path d="M171.572 79.6278C168.795 82.1777 166.152 84.8394 163.218 87.2104C155.402 93.518 146.758 98.7743 137.598 102.868C134.104 104.433 130.543 105.82 126.915 107.073C123.802 108.146 120.577 108.75 117.397 109.578C116.703 109.757 115.986 109.958 115.292 110.182C112.873 110.942 111.44 112.888 111.843 115.438C113.455 125.794 128.147 119.062 133.567 116.914C138.09 115.125 142.525 113.157 146.87 111.009C156.388 106.312 165.973 100.832 173.655 93.4061C175.043 92.0641 176.342 90.6326 177.551 89.1116C174.774 87.1433 171.594 83.9447 171.549 79.6055L171.572 79.6278Z" stroke="#C1FF3E" stroke-width="2" stroke-miterlimit="10" stroke-linecap="round"/>
<path d="M172.736 83.9893C172.624 83.788 172.535 83.609 172.445 83.4077C172.535 83.609 172.624 83.8103 172.736 83.9893Z" stroke="#C1FF3E" stroke-width="2" stroke-miterlimit="10" stroke-linecap="round"/>
<path d="M174.685 86.6511C174.08 86.0024 173.52 85.2643 173.027 84.4814C173.498 85.2643 174.058 85.9801 174.685 86.6511Z" stroke="#C1FF3E" stroke-width="2" stroke-miterlimit="10" stroke-linecap="round"/>
<path d="M175.558 87.501C175.312 87.2773 175.088 87.0537 174.842 86.8076C175.066 87.0537 175.312 87.2773 175.558 87.501Z" stroke="#C1FF3E" stroke-width="2" stroke-miterlimit="10" stroke-linecap="round"/>
<path d="M172.199 82.8041C172.131 82.6028 172.042 82.4015 171.997 82.2002C172.064 82.4015 172.131 82.6028 172.199 82.8041Z" stroke="#C1FF3E" stroke-width="2" stroke-miterlimit="10" stroke-linecap="round"/>
<path d="M171.818 81.5068C171.773 81.3055 171.728 81.1266 171.684 80.9253C171.706 81.1266 171.773 81.3279 171.818 81.5068Z" stroke="#C1FF3E" stroke-width="2" stroke-miterlimit="10" stroke-linecap="round"/>
<path d="M172.446 83.4081C172.356 83.2068 172.266 83.0055 172.199 82.8042C172.289 83.0055 172.356 83.2068 172.446 83.4081Z" stroke="#C1FF3E" stroke-width="2" stroke-miterlimit="10" stroke-linecap="round"/>
<path d="M174.841 86.8079C174.841 86.8079 174.752 86.6961 174.707 86.6514C174.752 86.6961 174.797 86.7632 174.841 86.8079Z" stroke="#C1FF3E" stroke-width="2" stroke-miterlimit="10" stroke-linecap="round"/>
<path d="M171.998 82.2002C171.93 81.9766 171.863 81.7305 171.818 81.5068" stroke="#C1FF3E" stroke-width="2" stroke-miterlimit="10" stroke-linecap="round"/>
<path d="M175.581 87.5233L175.559 87.501L175.581 87.5233Z" stroke="#C1FF3E" stroke-width="2" stroke-miterlimit="10" stroke-linecap="round"/>
<path d="M173.05 84.4817C172.938 84.3252 172.848 84.1462 172.759 83.9673C172.848 84.1462 172.96 84.3028 173.05 84.4817Z" stroke="#C1FF3E" stroke-width="2" stroke-miterlimit="10" stroke-linecap="round"/>
<path d="M171.706 77.9725C172.154 75.3555 173.565 74.0806 175.401 73.6556C171.415 32.9246 137.038 1.11816 95.203 1.11816C50.7032 1.11816 14.624 37.152 14.624 81.6184C14.624 95.0612 17.9386 107.721 23.7614 118.838C23.7614 118.838 23.7614 118.838 23.7838 118.838C24.2765 118.972 24.7916 119.151 25.3739 119.374C31.8462 122.014 43.6262 125.436 54.7792 124.452C58.1609 124.139 61.5426 123.49 62.8639 126.219C64.1853 128.948 64.4764 132.84 59.1911 135.971C55.3166 138.275 44.4996 138.163 36.5492 136.799C48.2621 149.213 63.8941 157.913 81.4522 160.933C85.9089 161.694 90.5 162.119 95.1806 162.119C95.427 162.119 95.6509 162.119 95.8973 162.119C107.229 162.029 117.979 159.569 127.744 155.274C131.551 153.597 135.201 151.628 138.673 149.392C158.246 136.843 172.02 116.086 175.11 91.9745C174.617 92.4889 174.147 93.0034 173.632 93.4954C165.95 100.921 156.388 106.401 146.847 111.099C142.502 113.246 138.046 115.214 133.544 117.004C128.124 119.151 113.433 125.861 111.821 115.527C111.417 112.977 112.851 111.009 115.269 110.271C115.964 110.047 116.658 109.868 117.375 109.667C120.532 108.839 123.757 108.236 126.893 107.162C130.521 105.909 134.082 104.523 137.575 102.957C146.735 98.8636 155.402 93.6073 163.196 87.2997C166.13 84.9287 168.772 82.2446 171.549 79.7171C171.549 80.1645 171.594 80.5895 171.661 80.9921C171.527 80.075 171.505 79.0908 171.684 78.0396L171.706 77.9725Z" stroke="#C1FF3E" stroke-width="2" stroke-miterlimit="10" stroke-linecap="round"/>
<path d="M111.866 115.461C111.463 112.911 112.896 110.942 115.315 110.204C116.009 109.981 116.703 109.802 117.42 109.6C118.607 109.287 119.816 108.996 121.003 108.728C118.92 106.603 116.121 105.507 113.299 106.066C108.507 107.028 105.528 112.351 106.648 117.966C107.768 123.58 112.583 127.36 117.375 126.398C120.399 125.794 122.683 123.446 123.713 120.404C118.271 121.701 112.829 121.522 111.888 115.461H111.866Z" fill="#C1FF3E"/>
<path d="M54.7793 124.452C54.7793 124.452 59.2808 130.76 54.7793 137.761" stroke="#C1FF3E" stroke-width="2" stroke-miterlimit="10" stroke-linecap="round"/>
<path d="M49.1131 124.609C49.1131 124.609 54.4432 132.661 48.71 137.761" stroke="#C1FF3E" stroke-width="2" stroke-miterlimit="10" stroke-linecap="round"/>
<path d="M44.3208 124.251C44.3208 124.251 48.5759 133.712 43.8057 137.627" stroke="#C1FF3E" stroke-width="2" stroke-miterlimit="10" stroke-linecap="round"/>
<path d="M38.879 123.401C38.879 123.401 42.104 134.696 36.5723 136.799" stroke="#C1FF3E" stroke-width="2" stroke-miterlimit="10" stroke-linecap="round"/>
<path d="M33.4588 122.104C33.4588 122.104 36.3254 132.974 31.3984 135.546" stroke="#C1FF3E" stroke-width="2" stroke-miterlimit="10" stroke-linecap="round"/>
<path d="M28.0394 120.404C28.0394 120.404 31.5555 130.424 26.8076 133.802" stroke="#C1FF3E" stroke-width="2" stroke-miterlimit="10" stroke-linecap="round"/>
<path d="M23.7839 118.838C23.7839 118.838 25.262 129.216 22.3506 131.006" stroke="#C1FF3E" stroke-width="2" stroke-miterlimit="10" stroke-linecap="round"/>
<path d="M117.397 109.6C117.397 109.6 116.255 119.509 121.675 120.806" stroke="#C1FF3E" stroke-width="2" stroke-miterlimit="10" stroke-linecap="round"/>
<path d="M123.691 108.057C123.691 108.057 121.115 116.489 127.453 119.307" stroke="#C1FF3E" stroke-width="2" stroke-miterlimit="10" stroke-linecap="round"/>
<path d="M128.55 106.514C128.55 106.514 127.721 116.378 134.462 116.579" stroke="#C1FF3E" stroke-width="2" stroke-miterlimit="10" stroke-linecap="round"/>
<path d="M134.463 104.232C134.463 104.232 134.463 114.253 139.927 114.297" stroke="#C1FF3E" stroke-width="2" stroke-miterlimit="10" stroke-linecap="round"/>
<path d="M139.927 101.816C139.927 101.816 138.807 109.533 144.675 112.128" stroke="#C1FF3E" stroke-width="2" stroke-miterlimit="10" stroke-linecap="round"/>
<path d="M145.369 99.0649C145.369 99.0649 144.429 109.443 149.781 109.6" stroke="#C1FF3E" stroke-width="2" stroke-miterlimit="10" stroke-linecap="round"/>
<path d="M149.4 96.7837C149.4 96.7837 149.4 105.686 156.253 106.089" stroke="#C1FF3E" stroke-width="2" stroke-miterlimit="10" stroke-linecap="round"/>
<path d="M153.454 94.3008C153.454 94.3008 155.694 103.046 161.897 102.689" stroke="#C1FF3E" stroke-width="2" stroke-miterlimit="10" stroke-linecap="round"/>
<path d="M157.664 91.438C157.664 91.438 159.657 98.7298 166.622 99.3784" stroke="#C1FF3E" stroke-width="2" stroke-miterlimit="10" stroke-linecap="round"/>
<path d="M161.673 88.4629C161.673 88.4629 165.391 96.4928 170.698 96.1573" stroke="#C1FF3E" stroke-width="2" stroke-miterlimit="10" stroke-linecap="round"/>
<path d="M166.197 84.6606C166.197 84.6606 169.579 91.4603 175.155 91.93" stroke="#C1FF3E" stroke-width="2" stroke-miterlimit="10" stroke-linecap="round"/>
<path d="M151.863 180.572C147.899 180.102 144.451 178.38 141.45 175.964C135.246 175.964 128.371 179.185 125.862 186.857C130.655 190.279 138.068 198.511 130.386 213.542C134.485 220.744 141.517 227.857 152.491 223.585C169.892 216.807 159.187 189.743 151.863 180.572Z" stroke="#C1FF3E" stroke-width="2" stroke-miterlimit="10"/>
<path d="M193.139 158.495C179.433 145.791 170.452 158.943 168.369 162.499C173.296 166.928 179.589 175.584 174.102 188.244C178.223 193.858 184.494 198.891 193.139 196.766C210.585 192.494 208.86 173.057 193.139 158.495Z" stroke="#C1FF3E" stroke-width="2" stroke-miterlimit="10"/>
</g>
<defs>
<clipPath id="clip0_520_1030">
<rect width="247" height="226" fill="white"/>
</clipPath>
</defs>
</svg>
